<svg width="30" height="27" viewBox="0 0 30 27" fill="none" xmlns="http://www.w3.org/2000/svg">
<path d="M29.516 21.561L18.2086 1.84752C17.8811 1.28522 17.4126 0.818807 16.8498 0.494677C16.287 0.170548 15.6495 0 15.0006 0C14.3518 0 13.7143 0.170548 13.1515 0.494677C12.5887 0.818807 12.1202 1.28522 11.7927 1.84752L0.485285 21.561C0.167488 22.1067 0 22.7274 0 23.3594C0 23.9915 0.167488 24.6122 0.485285 25.1579C0.80917 25.723 1.27698 26.1914 1.84073 26.5151C2.40447 26.8388 3.04384 27.0061 3.69325 26.9998H26.308C26.957 27.0056 27.5959 26.8381 28.1591 26.5145C28.7223 26.1908 29.1898 25.7226 29.5134 25.1579C29.8316 24.6125 29.9995 23.9919 30 23.3598C30.0005 22.7277 29.8334 22.1069 29.516 21.561ZM26.8265 23.5989C26.774 23.6889 26.6981 23.7629 26.6071 23.8132C26.5161 23.8635 26.4132 23.8881 26.3093 23.8845H3.69325C3.58941 23.8881 3.48653 23.8635 3.39549 23.8132C3.30445 23.7629 3.22863 23.6889 3.17604 23.5989C3.13144 23.5261 3.10782 23.4423 3.10782 23.3569C3.10782 23.2714 3.13144 23.1876 3.17604 23.1148L14.4834 3.40129C14.5394 3.31477 14.6161 3.24366 14.7064 3.19444C14.7967 3.14522 14.8979 3.11943 15.0006 3.11943C15.1034 3.11943 15.2046 3.14522 15.2949 3.19444C15.3852 3.24366 15.4619 3.31477 15.5179 3.40129L26.824 23.1148C26.869 23.1873 26.893 23.271 26.8935 23.3565C26.8939 23.442 26.8708 23.5259 26.8265 23.5989ZM13.449 15.0578V10.904C13.449 10.4909 13.6125 10.0947 13.9035 9.80258C14.1945 9.51046 14.5891 9.34635 15.0006 9.34635C15.4122 9.34635 15.8068 9.51046 16.0978 9.80258C16.3888 10.0947 16.5523 10.4909 16.5523 10.904V15.0578C16.5523 15.4709 16.3888 15.8671 16.0978 16.1592C15.8068 16.4513 15.4122 16.6154 15.0006 16.6154C14.5891 16.6154 14.1945 16.4513 13.9035 16.1592C13.6125 15.8671 13.449 15.4709 13.449 15.0578ZM17.0695 20.25C17.0695 20.6607 16.9481 21.0623 16.7208 21.4038C16.4935 21.7454 16.1704 22.0116 15.7924 22.1688C15.4143 22.326 14.9984 22.3671 14.597 22.2869C14.1957 22.2068 13.8271 22.009 13.5378 21.7185C13.2484 21.4281 13.0514 21.058 12.9716 20.6551C12.8918 20.2523 12.9327 19.8347 13.0893 19.4552C13.2459 19.0757 13.5111 18.7513 13.8513 18.5231C14.1915 18.2949 14.5915 18.1731 15.0006 18.1731C15.5493 18.1731 16.0755 18.3919 16.4635 18.7814C16.8515 19.1709 17.0695 19.6991 17.0695 20.25Z" fill="#BD0909"/>
</svg>
