<svg xmlns="http://www.w3.org/2000/svg" width="20" height="20" viewBox="0 0 20 20"><path fill="#37DE8A" stroke="#37DE8A" stroke-width=".5" d="M13.5,1.45454545 L12.75,1.45454545 L12.75,0 L11.25,0 L11.25,1.45454545 L3.75,1.45454545 L3.75,0 L2.25,0 L2.25,1.45454545 L1.5,1.45454545 C0.675,1.45454545 0,2.10909091 0,2.90909091 L0,14.5454545 C0,15.3454545 0.675,16 1.5,16 L13.5,16 C14.325,16 15,15.3454545 15,14.5454545 L15,2.90909091 C15,2.10909091 14.325,1.45454545 13.5,1.45454545 Z M13.5,14.5454545 L1.5,14.5454545 L1.5,5.09090909 L13.5,5.09090909 L13.5,14.5454545 Z" transform="translate(2.5 2)"/></svg>