<svg width="34" height="34" viewBox="0 0 34 34" fill="none" xmlns="http://www.w3.org/2000/svg">
<path d="M28.2 3.95H25.25V2.6C25.25 2.10935 25.0551 1.6388 24.7081 1.29185C24.3612 0.94491 23.8906 0.75 23.4 0.75C22.9094 0.75 22.4388 0.94491 22.0919 1.29185C21.7449 1.6388 21.55 2.10935 21.55 2.6V3.95H12.45V2.6C12.45 2.10935 12.2551 1.63879 11.9081 1.29185C11.5612 0.94491 11.0907 0.75 10.6 0.75C10.1093 0.75 9.6388 0.94491 9.29185 1.29185C8.94491 1.63879 8.75 2.10935 8.75 2.6V3.95H5.8C4.46066 3.95 3.17617 4.48205 2.22911 5.42911C1.28205 6.37617 0.75 7.66066 0.75 9V28.2C0.75 29.5393 1.28205 30.8238 2.22911 31.7709C3.17617 32.7179 4.46066 33.25 5.8 33.25H28.2C29.5393 33.25 30.8238 32.7179 31.7709 31.7709C32.7179 30.8238 33.25 29.5393 33.25 28.2V9C33.25 7.66066 32.7179 6.37617 31.7709 5.42911C30.8238 4.48205 29.5393 3.95 28.2 3.95ZM29.55 28.2C29.55 28.558 29.4078 28.9014 29.1546 29.1546C28.9014 29.4078 28.558 29.55 28.2 29.55H5.8C5.44196 29.55 5.09858 29.4078 4.84541 29.1546C4.59223 28.9014 4.45 28.558 4.45 28.2V17.25H29.55V28.2ZM29.55 13.55H4.45V9C4.45 8.64196 4.59223 8.29858 4.84541 8.04541C5.09858 7.79223 5.44196 7.65 5.8 7.65H8.75V9C8.75 9.49065 8.94491 9.96121 9.29185 10.3081C9.63879 10.6551 10.1093 10.85 10.6 10.85C11.0907 10.85 11.5612 10.6551 11.9081 10.3081C12.2551 9.9612 12.45 9.49065 12.45 9V7.65H21.55V9C21.55 9.49065 21.7449 9.9612 22.0919 10.3081C22.4388 10.6551 22.9093 10.85 23.4 10.85C23.8906 10.85 24.3612 10.6551 24.7081 10.3081C25.0551 9.9612 25.25 9.49065 25.25 9V7.65H28.2C28.558 7.65 28.9014 7.79223 29.1546 8.04541C29.4078 8.29858 29.55 8.64196 29.55 9V13.55Z" fill="black" stroke="black" stroke-width="0.5"/>
</svg>
