<?xml version="1.0" encoding="UTF-8"?>
<svg width="872px" height="175px" viewBox="0 0 872 175" version="1.1" xmlns="http://www.w3.org/2000/svg" xmlns:xlink="http://www.w3.org/1999/xlink">
    <!-- Generator: Sketch 55 (78076) - https://sketchapp.com -->
    <title>Group</title>
    <desc>Created with Sketch.</desc>
    <g id="Page-1" stroke="none" stroke-width="1" fill="none" fill-rule="evenodd">
        <g id="citylab-logo" transform="translate(-58.000000, -413.000000)">
            <g id="Group" transform="translate(58.000000, 413.000000)">
                <path d="M273.878618,99.7743212 C268.258397,109.4728 261.076012,114.269406 246.9194,114.269406 C230.058737,114.269406 218.4,102.588727 218.4,82.1490285 C218.4,61.7093296 229.537355,50.3424658 248.792807,50.3424658 C261.908638,50.3424658 269.923648,56.2870794 274.4,66.1941066 L259.202605,73.5985568 C257.537355,67.8624913 254.93441,64.2138929 248.376494,64.2138929 C239.737015,64.2138929 234.43002,71.0959798 234.43002,82.5661246 C234.43002,93.8297076 239.217615,100.397979 248.792807,100.397979 C253.685472,100.397979 258.058737,97.5835732 260.243387,91.9527748 L273.878618,99.7743212 Z" id="Fill-1" fill="#2F2FA2"></path>
                <path d="M282.238876,113.47032 L297.451814,113.47032 L297.451814,65.4333996 L282.238876,65.4333996 L282.238876,113.47032 Z M289.846324,42.3515982 C295.190722,42.3515982 299.2,45.1595936 299.2,50.9835107 C299.2,56.5975213 295.190722,59.5084897 289.846324,59.5084897 C284.913033,59.5084897 280.8,56.5975213 280.8,50.9835107 C280.8,45.1595936 284.913033,42.3515982 289.846324,42.3515982 L289.846324,42.3515982 Z" id="Fill-3" fill="#2F2FA2"></path>
                <path d="M344,111.030374 C339.631462,113.226868 334.43318,114.269406 328.195241,114.269406 C318.42049,114.269406 311.766689,109.77694 311.766689,98.078223 L311.766689,76.664398 L304.8,76.664398 L304.8,64.7527963 L311.869664,64.7527963 L311.869664,54.5164189 L327.25856,52.739726 L327.25856,64.7527963 L341.504824,64.7527963 L341.504824,76.664398 L327.155585,76.664398 L327.155585,94.5248372 C327.155585,99.5405626 329.131922,101.10835 332.874686,101.10835 C335.888699,101.10835 338.593786,99.9583739 341.399869,97.9747649 L344,111.030374 Z" id="Fill-5" fill="#2F2FA2"></path>
                <path d="M368.953618,85.2968043 C371.562766,94.7436503 372.085789,101.040215 372.085789,101.040215 L372.503411,101.040215 C372.503411,101.040215 373.024445,94.6377081 375.844393,85.2968043 L382.110724,64.7260274 L398.4,64.7260274 L378.873153,117.623168 C373.235246,132.840865 366.447881,135.045662 356.005324,135.045662 C353.081964,135.045662 349.635582,134.519949 346.921034,133.892291 L349.323359,120.03785 C351.097262,121.191221 353.396176,121.820877 355.693101,121.820877 C359.869328,121.820877 362.583876,120.245737 364.254367,115.944084 L346.4,64.7260274 L363.315711,64.7260274 L368.953618,85.2968043 Z" id="Fill-6" fill="#2F2FA2"></path>
                <polygon id="Fill-7" fill="#2F2FA2" points="421.967942 51.9406393 421.967942 99.8894622 444.8 99.8894622 444.8 113.47032 406.4 113.47032 406.4 51.9406393"></polygon>
                <path d="M473.521424,88.9209202 L487.242692,88.9209202 L485.566934,84.2215377 C481.900215,73.9831708 480.643396,66.2516718 480.643396,66.2516718 L480.224457,66.2516718 C480.224457,66.2516718 478.654431,74.0866288 475.197182,84.1160901 L473.521424,88.9209202 Z M491.851027,101.978519 L469.120564,101.978519 L465.24637,113.47032 L448.8,113.47032 L471.111524,51.9406393 L490.281001,51.9406393 L512.8,113.47032 L495.936685,113.47032 L491.851027,101.978519 Z" id="Fill-8" fill="#2F2FA2"></path>
                <path d="M537.308865,100.203815 L547.151837,100.203815 C551.76118,100.203815 554.483705,98.9503815 554.483705,94.2490093 C554.483705,90.3832598 551.76118,88.5031089 547.151837,88.5031089 L537.308865,88.5031089 L537.308865,100.203815 Z M545.163298,77.2202137 C549.455512,77.2202137 552.18003,75.654416 552.18003,71.3708552 C552.18003,66.7749307 549.561221,65.2071435 544.848163,65.2071435 L537.308865,65.2071435 L537.308865,77.2202137 L545.163298,77.2202137 Z M556.787379,82.1304915 C566.002076,83.4893731 570.4,89.4441792 570.4,96.7578668 C570.4,106.785339 563.594687,113.47032 548.514097,113.47032 L521.6,113.47032 L521.6,51.9406393 L548.723521,51.9406393 C561.185303,51.9406393 567.783186,57.7919873 567.783186,67.4016477 C567.783186,75.0276991 563.488977,79.9359873 556.787379,81.7126802 L556.787379,82.1304915 Z" id="Fill-9" fill="#2F2FA2"></path>
                <path d="M631.901465,77.2202137 C636.160898,77.2202137 639.900018,75.654416 639.900018,70.5352326 C639.900018,66.6694831 637.717875,65.2071435 633.66815,65.2071435 L626.603388,65.2071435 L624.526099,77.2202137 L631.901465,77.2202137 Z M620.474396,100.203815 L630.239634,100.203815 C635.120275,100.203815 638.548791,98.3216749 638.548791,93.5168447 C638.548791,90.3832598 636.88696,88.5031089 632.316923,88.5031089 L622.551685,88.5031089 L620.474396,100.203815 Z M641.769579,82.0270335 C650.701923,83.385915 653.922711,89.0263678 653.922711,94.9791844 C653.922711,107.515514 644.054597,113.47032 629.096136,113.47032 L602.4,113.47032 L613.101008,51.9406393 L638.445916,51.9406393 C651.014506,51.9406393 656,57.6865397 656,65.7304024 C656,75.0257095 649.560403,80.5646938 641.874433,81.6072326 L641.769579,82.0270335 Z" id="Fill-10" fill="#2F2FA2"></path>
                <path d="M693.51795,83.5459719 C693.623361,82.9232396 693.726782,82.1957302 693.726782,81.3634436 C693.726782,77.9394047 692.577212,75.2408983 688.505983,75.2408983 C684.327355,75.2408983 681.823361,79.082069 680.673791,83.5459719 L693.51795,83.5459719 Z M692.473791,96.4177486 L707.302848,99.9465647 C704.482623,109.702703 697.8,114.269406 684.223934,114.269406 C670.335614,114.269406 662.4,106.17191 662.4,93.4049107 C662.4,74.4105886 675.138749,63.9269406 689.132479,63.9269406 C703.126209,63.9269406 709.6,72.3348145 709.6,81.3634436 C709.6,85.2065912 708.868094,88.9410078 707.51168,91.6414911 L679.003135,91.6414911 C677.750143,97.9735908 680.359548,102.437494 685.476926,102.437494 C689.027069,102.437494 691.429631,100.982475 692.473791,96.4177486 L692.473791,96.4177486 Z" id="Fill-11" fill="#2F2FA2"></path>
                <path d="M752.341238,82.687571 C745.443736,79.0224358 736.036061,80.0713265 734.260427,90.2252266 L730.183635,113.47032 L714.4,113.47032 L722.866112,65.0977138 L736.663107,65.0977138 L736.350579,78.396292 C739.692832,68.447783 747.740913,62.1664033 756,64.3658833 L752.341238,82.687571 Z" id="Fill-12" fill="#2F2FA2"></path>
                <path d="M773.706457,97.342227 C773.284611,99.6407095 773.495534,101.624768 776.659379,101.624768 C777.607528,101.624768 778.557686,101.417805 779.823224,101.10338 L777.292148,112.910217 C774.656615,113.746029 771.595219,114.269406 768.959686,114.269406 C759.361686,114.269406 755.565073,109.463488 757.148,100.162097 L767.272302,43.9497717 L783.2,43.9497717 L773.706457,97.342227 Z" id="Fill-13" fill="#2F2FA2"></path>
                <path d="M804.179359,41.5525114 C809.562019,41.5525114 813.6,44.3714144 813.6,50.2159663 C813.6,55.8517843 809.562019,58.7760482 804.179359,58.7760482 C799.208779,58.7760482 795.070243,55.8517843 795.070243,50.2159663 C795.070243,44.3714144 799.208779,41.5525114 804.179359,41.5525114 L804.179359,41.5525114 Z M804.59341,96.5608778 C804.179359,98.8569518 804.386385,100.838931 807.493737,100.838931 C808.424366,100.838931 809.356966,100.632185 810.599118,100.31809 L808.112842,112.112555 C805.52601,112.947491 802.523156,113.47032 799.936325,113.47032 C790.513713,113.47032 786.789228,108.669438 788.340932,99.3777928 L794.447195,64.7239732 L810.080569,64.7239732 L804.59341,96.5608778 Z" id="Fill-14" fill="#2F2FA2"></path>
                <path d="M865.904769,96.6795004 C865.484408,98.959467 865.694589,100.927542 868.847294,100.927542 C869.792105,100.927542 870.738918,100.722246 872,100.410355 L869.477835,112.12208 C866.851582,112.951158 863.800964,113.47032 861.17471,113.47032 C851.610502,113.47032 847.827255,108.703117 849.404608,99.4766543 L852.030862,84.5512622 C852.767494,80.1985987 851.926773,76.6750139 847.092624,76.6750139 C843.307376,76.6750139 840.15467,79.993303 838.787497,87.5576598 L834.267618,112.951158 L818.4,112.951158 L826.913306,65.065937 L840.785211,65.065937 L840.995392,74.8095866 C844.044008,67.762417 848.351705,63.9269406 856.44465,63.9269406 C864.117235,63.9269406 868.951384,68.7987655 868.951384,76.1578266 C868.951384,77.8140102 868.847294,78.9549805 868.637114,80.1985987 L865.904769,96.6795004 Z" id="Fill-15" fill="#2F2FA2"></path>
                <polygon id="Fill-16" fill="#F64C72" points="95.1873397 123.059361 66.4 106.693481 66.9479874 33.5407345 125.71064 0 153.6 15.9118228 153.486003 89.5305229"></polygon>
                <polygon id="Fill-17" fill="#393A61" points="69.6 24.612994 60.3258154 29.9629488 60.0839491 62.4977463 27.1663429 81.4897878 26.728208 140.639269 0 125.280747 0.543207907 51.9845785 58.7913522 18.3789954"></polygon>
                <polygon id="Fill-18" fill="#2F2FA2" points="60.4747991 70.3196347 60.1733254 110.994516 95.3406363 131.154489 120 116.853936 119.964299 141.471429 62.1467885 175 33.6 158.633283 34.1434461 85.4767932"></polygon>
            </g>
        </g>
    </g>
</svg>