<svg width="21" height="21" viewBox="0 0 21 21" fill="none" xmlns="http://www.w3.org/2000/svg">
<path d="M10.5 5.25C9.5335 5.25 8.75 4.4665 8.75 3.5C8.75 2.5335 9.5335 1.75 10.5 1.75C11.4665 1.75 12.25 2.5335 12.25 3.5C12.25 4.4665 11.4665 5.25 10.5 5.25Z" fill="black"/>
<path d="M7.09614 7.09625C7.43739 6.755 8.02364 6.125 9.16114 6.125H11.3836C12.4128 6.11956 13.4075 5.7531 14.1942 5.08951C14.9809 4.42593 15.5098 3.50729 15.6886 2.49375C15.7195 2.28794 15.8228 2.09991 15.9801 1.96355C16.1373 1.82718 16.338 1.75145 16.5461 1.75C17.0799 1.75 17.4999 2.2225 17.4211 2.7475C17.2306 3.87962 16.7273 4.93593 15.9681 5.79714C15.209 6.65835 14.2242 7.29017 13.1249 7.62125V18.375C13.1249 18.8563 12.7311 19.25 12.2499 19.25C11.7686 19.25 11.3749 18.8563 11.3749 18.375V14H9.62489V18.375C9.62489 18.8563 9.23114 19.25 8.74989 19.25C8.26864 19.25 7.87489 18.8563 7.87489 18.375V8.79375L5.03989 11.6287C4.95888 11.7098 4.86271 11.774 4.75686 11.8179C4.65102 11.8617 4.53758 11.8843 4.42301 11.8843C4.30845 11.8843 4.19501 11.8617 4.08916 11.8179C3.98332 11.774 3.88715 11.7098 3.80614 11.6287C3.72513 11.5477 3.66087 11.4516 3.61703 11.3457C3.57319 11.2399 3.55062 11.1264 3.55062 11.0119C3.55062 10.8973 3.57319 10.7839 3.61703 10.678C3.66087 10.5722 3.72513 10.476 3.80614 10.395L7.09614 7.09625Z" fill="black"/>
</svg>
