<svg width="24" height="20" viewBox="0 0 24 20" fill="none" xmlns="http://www.w3.org/2000/svg">
  <g id="filled heart">
    <path id="Vector" d="M23.6522 6.45986C23.6522 13.7532 12.693 19.6567 12.2263 19.9005C12.1033 19.9658 11.9658 20 11.8261 20C11.6864 20 11.5489 19.9658 11.4259 19.9005C10.9592 19.6567 0 13.7532 0 6.45986C0.00195631 4.74719 0.692312 3.10522 1.91961 1.89418C3.14691 0.683141 4.81092 0.00193039 6.54658 0C8.72702 0 10.6361 0.925218 11.8261 2.48913C13.0161 0.925218 14.9252 0 17.1056 0C18.8413 0.00193039 20.5053 0.683141 21.7326 1.89418C22.9599 3.10522 23.6502 4.74719 23.6522 6.45986Z" fill="#660A9C"/>
  </g>
</svg>
