<svg xmlns="http://www.w3.org/2000/svg" width="52" height="52" viewBox="0 0 52 52" fill="none">
  <g clip-path="url(#clip0_10910_8879)">
    <path d="M0.644477 26.2238C0.44531 12.1419 11.6995 0.564891 25.7813 0.365724C39.8632 0.166558 51.4402 11.4207 51.6394 25.5026C51.8385 39.5844 40.5844 51.1615 26.5026 51.3606C12.4207 51.5598 0.843644 40.3057 0.644477 26.2238Z" fill="white"/>
    <path d="M26.2785 39.1856L26.223 35.2576M25.9637 16.927L25.9081 12.999M39.1866 25.9071L35.2586 25.9627M16.928 26.2219L13 26.2775" stroke="#2C303B" stroke-width="2.5" stroke-linecap="round" stroke-linejoin="round"/>
    <path d="M16.9282 26.2227C16.8566 21.1608 20.902 16.9993 25.9638 16.9277C31.0257 16.8561 35.1872 20.9016 35.2588 25.9634C35.3304 31.0253 31.285 35.1867 26.2231 35.2583C21.1612 35.3299 16.9998 31.2845 16.9282 26.2227Z" stroke="#2C303B" stroke-width="2.5" stroke-linecap="round" stroke-linejoin="round"/>
    <path d="M22.1645 26.146C22.1338 23.9767 23.8675 22.1932 26.0369 22.1625C28.2063 22.1318 29.9898 23.8655 30.0204 26.0349C30.0511 28.2043 28.3174 29.9878 26.148 30.0184C23.9786 30.0491 22.1951 28.3154 22.1645 26.146Z" stroke="#2C303B" stroke-width="2.5" stroke-linecap="round" stroke-linejoin="round"/>
  </g>
  <defs>
    <clipPath id="clip0_10910_8879">
      <rect width="52" height="52" fill="white"/>
    </clipPath>
  </defs>
</svg>