<svg width="52" height="52" viewBox="0 0 52 52" fill="none" xmlns="http://www.w3.org/2000/svg">
  <circle cx="25.5" cy="25.5" r="25.5" transform="matrix(-0.999958 -0.00918777 -0.00918777 0.999958 52 1)" fill="white"/>
  <path d="M17.1008 26.7679C17.1059 26.2196 17.224 25.6947 17.4292 25.3089C17.6343 24.923 17.9098 24.7077 18.1949 24.7103L33.9629 24.8552C34.248 24.8578 34.5195 25.0781 34.7175 25.4677C34.9156 25.8573 35.024 26.3842 35.019 26.9325C35.014 27.4808 34.8959 28.0057 34.6907 28.3916C34.4855 28.7774 34.21 28.9927 33.9249 28.9901L18.1569 28.8452C17.8718 28.8426 17.6003 28.6223 17.4023 28.2327C17.2042 27.8431 17.0958 27.3162 17.1008 26.7679Z" fill="#2C303B"/>
</svg>
