<svg width="256" height="256" viewBox="0 0 256 256" fill="none" xmlns="http://www.w3.org/2000/svg">
<g id="icon-water 1" clip-path="url(#clip0_1903_15306)">
<circle id="Ellipse 73" cx="224.959" cy="32.7548" r="17.3778" transform="rotate(45 224.959 32.7548)" fill="#3DF99A" fill-opacity="0.36"/>
<circle id="Ellipse 73_2" cx="68.7029" cy="97.329" r="51.5272" fill="#37DE8A" fill-opacity="0.36"/>
<g id="icon-water">
<g id="Group">
<g id="Group-6-Copy">
<path id="Oval-Copy-9" d="M186.065 74.4736C188.635 74.4736 190.719 72.3897 190.719 69.8191C190.719 67.2485 188.635 65.1646 186.065 65.1646C183.494 65.1646 181.41 67.2485 181.41 69.8191C181.41 72.3897 183.494 74.4736 186.065 74.4736Z" stroke="#2C303B" stroke-width="11"/>
<path id="Oval-Copy-10" d="M223.301 32.5826C231.012 32.5826 237.264 38.8343 237.264 46.5463C237.264 54.2582 231.012 60.5099 223.301 60.5099C215.589 60.5099 209.337 54.2582 209.337 46.5463C209.337 38.8343 215.589 32.5826 223.301 32.5826Z" fill="white" stroke="#2C303B" stroke-width="11"/>
<path id="Oval-Copy-8" d="M209.337 121.018C204.196 121.018 200.028 125.186 200.028 130.327C200.028 135.468 204.196 139.636 209.337 139.636C214.478 139.636 218.646 135.468 218.646 130.327C218.646 125.186 214.478 121.018 209.337 121.018Z" fill="white" stroke="#2C303B" stroke-width="11"/>
<path id="Rectangle" fill-rule="evenodd" clip-rule="evenodd" d="M205.253 169.593L209.29 195.787C209.573 197.623 208.314 199.341 206.478 199.624C205.176 199.825 203.876 199.247 203.153 198.146L199.847 193.112C196.713 188.339 190.99 185.956 185.395 187.092L110.651 202.277C106.212 203.179 101.883 200.311 100.981 195.872C100.683 194.405 100.792 192.884 101.297 191.474L103.15 186.3C105.007 181.114 109.739 177.504 115.231 177.084L190.923 171.294C193.645 171.086 196.246 170.085 198.405 168.414L199.728 167.39C201.236 166.223 203.404 166.499 204.571 168.006C204.929 168.469 205.164 169.015 205.253 169.593Z" fill="white" stroke="#2C303B" stroke-width="11"/>
<path id="Path" d="M123.041 89.5004C120.122 69.2671 105.808 51.5469 84.8342 45.2029C55.8701 36.4457 25.1723 52.6988 16.267 81.5063C10.0831 101.518 16.0415 122.324 29.9652 136.1" stroke="#37DE8A" stroke-width="11" stroke-linecap="round"/>
<g id="Group-2">
<g id="Path_2">
<path fill-rule="evenodd" clip-rule="evenodd" d="M74.6441 102.845L131.482 110.657C139.122 111.707 144.465 118.752 143.415 126.392C143.384 126.618 143.347 126.842 143.305 127.066L139.667 146.457" fill="white"/>
<path d="M74.6441 102.845L131.482 110.657C139.122 111.707 144.465 118.752 143.415 126.392C143.384 126.618 143.347 126.842 143.305 127.066L139.667 146.457" stroke="#2C303B" stroke-width="11"/>
</g>
<path id="Rectangle_2" fill-rule="evenodd" clip-rule="evenodd" d="M85.2969 104.945L132.621 134.223C139.059 138.206 141.15 146.594 137.336 153.134L106.226 206.467C102.34 213.128 93.7896 215.378 87.1282 211.492C87.0238 211.432 86.9202 211.369 86.8173 211.306L39.4934 182.027C33.0552 178.044 30.9639 169.656 34.7784 163.117L65.8887 109.784C69.7744 103.123 78.3246 100.873 84.986 104.758C85.0904 104.819 85.1941 104.881 85.2969 104.945Z" fill="white" stroke="#2C303B" stroke-width="11"/>
<path id="Rectangle_3" fill-rule="evenodd" clip-rule="evenodd" d="M62.9082 116.682L133.866 160.582L130.21 166.85L59.2523 122.95L62.9082 116.682Z" fill="#2C303B"/>
<path id="Rectangle-Copy" fill-rule="evenodd" clip-rule="evenodd" d="M42.8013 151.152L113.759 195.052L110.104 201.319L39.1454 157.419L42.8013 151.152Z" fill="#2C303B"/>
</g>
</g>
</g>
</g>
</g>
<defs>
<clipPath id="clip0_1903_15306">
<rect width="256" height="256" fill="white"/>
</clipPath>
</defs>
</svg>
