<svg width="52" height="52" viewBox="0 0 52 52" fill="none" xmlns="http://www.w3.org/2000/svg">
  <circle cx="25.5" cy="25.5" r="25.5" transform="matrix(-0.0141421 -0.9999 -0.9999 0.0141421 51.7163 50.9951)" fill="white"/>
  <path d="M28.0027 19.108L28.0661 23.5873L32.5453 23.5239C33.1393 23.5155 33.7123 23.7434 34.1383 24.1575C34.5642 24.5716 34.8083 25.1379 34.8167 25.7319C34.8251 26.3259 34.5972 26.8989 34.1831 27.3248C33.769 27.7508 33.2027 27.9948 32.6087 28.0032L28.1283 27.987L28.1928 32.5458C28.2012 33.1398 27.9733 33.7128 27.5592 34.1388C27.1451 34.5647 26.5788 34.8087 25.9848 34.8171C25.3908 34.8255 24.8178 34.5976 24.3919 34.1836C23.9659 33.7695 23.7219 33.2032 23.7135 32.6092L23.7285 28.0493L19.1708 28.1932C18.5769 28.2016 18.0039 27.9737 17.5779 27.5597C17.1519 27.1456 16.9079 26.5793 16.8995 25.9853C16.8911 25.3913 17.119 24.8183 17.5331 24.3923C17.9472 23.9664 18.5135 23.7224 19.1075 23.714L23.6663 23.6495L23.5234 19.1713C23.515 18.5773 23.7429 18.0043 24.157 17.5784C24.5711 17.1524 25.1374 16.9084 25.7314 16.9C26.3254 16.8916 26.8984 17.1195 27.3243 17.5336C27.7503 17.9477 27.9943 18.514 28.0027 19.108Z" fill="#2C303B"/>
</svg>
