<svg xmlns="http://www.w3.org/2000/svg" width="13" height="15" viewBox="0 0 13 15"><path fill="#FF8585" fill-rule="evenodd" d="M7,0 C8.65685425,0 10,1.34314575 10,3 L12,3 C12.5522847,3 13,3.44771525 13,4 C13,4.55228475 12.5522847,5 12,5 L11,5 L11,14 C11,14.5522847 10.5522847,15 10,15 L3,15 C2.44771525,15 2,14.5522847 2,14 L2,5 L1,5 C0.44771525,5 0,4.55228475 0,4 C0,3.44771525 0.44771525,3 1,3 L3,3 C3,1.34314575 4.34314575,0 6,0 L7,0 Z M7,2 L6,2 C5.48716416,2 5.06449284,2.38604019 5.00672773,2.88337887 L5,3 L8,3 C8,2.48716416 7.61395981,2.06449284 7.11662113,2.00672773 L7,2 Z"/></svg>