<svg width="64" height="64" viewBox="0 0 64 64" fill="none" xmlns="http://www.w3.org/2000/svg">
<g id="zoom out" filter="url(#filter0_d_3976_2652)">
<circle id="Ellipse 10" cx="25.5" cy="25.5" r="25.5" transform="matrix(-0.999958 -0.00918777 -0.00918777 0.999958 57.3928 3.7312)" fill="white"/>
<path id="Vector" d="M23.196 30.1503C23.2011 29.602 23.3192 29.0772 23.5244 28.6913C23.7295 28.3054 24.005 28.0901 24.2901 28.0927L40.0581 28.2376C40.3432 28.2402 40.6147 28.4606 40.8128 28.8501C41.0108 29.2397 41.1192 29.7666 41.1142 30.315C41.1092 30.8633 40.9911 31.3881 40.7859 31.774C40.5807 32.1599 40.3053 32.3752 40.0201 32.3726L24.2521 32.2277C23.967 32.2251 23.6956 32.0047 23.4975 31.6152C23.2994 31.2256 23.191 30.6987 23.196 30.1503Z" fill="#2C303B"/>
</g>
<defs>
<filter id="filter0_d_3976_2652" x="0.159668" y="0.495789" width="63" height="63.0001" filterUnits="userSpaceOnUse" color-interpolation-filters="sRGB">
<feFlood flood-opacity="0" result="BackgroundImageFix"/>
<feColorMatrix in="SourceAlpha" type="matrix" values="0 0 0 0 0 0 0 0 0 0 0 0 0 0 0 0 0 0 127 0" result="hardAlpha"/>
<feOffset dy="3"/>
<feGaussianBlur stdDeviation="3"/>
<feComposite in2="hardAlpha" operator="out"/>
<feColorMatrix type="matrix" values="0 0 0 0 0.410075 0 0 0 0 0.410075 0 0 0 0 0.410075 0 0 0 0.2 0"/>
<feBlend mode="normal" in2="BackgroundImageFix" result="effect1_dropShadow_3976_2652"/>
<feBlend mode="normal" in="SourceGraphic" in2="effect1_dropShadow_3976_2652" result="shape"/>
</filter>
</defs>
</svg>
