<svg width="52" height="52" viewBox="0 0 52 52" fill="none" xmlns="http://www.w3.org/2000/svg">
<circle cx="25.5" cy="25.5" r="25.5" transform="matrix(-0.0141421 -0.9999 -0.9999 0.0141421 52 51)" fill="white"/>
<path d="M26.9067 39.1852L26.8512 35.2572M26.5919 16.9266L26.5363 12.9986M39.8148 25.9067L35.8868 25.9623M17.5562 26.2215L13.6282 26.2771" stroke="#808080" stroke-width="2.5" stroke-linecap="round" stroke-linejoin="round"/>
<path d="M17.5564 26.2229C17.4848 21.161 21.5302 16.9995 26.592 16.9279C31.6539 16.8563 35.8154 20.9018 35.887 25.9636C35.9586 31.0255 31.9132 35.1869 26.8513 35.2585C21.7894 35.3301 17.628 31.2847 17.5564 26.2229Z" stroke="#808080" stroke-width="2.5" stroke-linecap="round" stroke-linejoin="round"/>
<path d="M22.7931 26.146C22.7624 23.9767 24.4961 22.1932 26.6655 22.1625C28.8349 22.1318 30.6184 23.8655 30.649 26.0349C30.6797 28.2043 28.946 29.9878 26.7766 30.0184C24.6072 30.0491 22.8237 28.3154 22.7931 26.146Z" stroke="#808080" stroke-width="2.5" stroke-linecap="round" stroke-linejoin="round"/>
</svg>
