<svg width="33" height="27" viewBox="0 0 33 27" fill="none" xmlns="http://www.w3.org/2000/svg">
  <g id="Group 406">
    <path id="Vector" d="M27.2256 5.51118C26.0048 6.67059 25.6913 8.33824 26.2687 9.76765L21.4512 14.4053V11.1177C21.4512 10.2441 20.7088 9.52941 19.8014 9.52941H18.1021C18.1516 9.25941 18.1516 9.0053 18.1516 8.7353C18.1516 3.90706 14.093 3.8415e-06 9.07758 3.8415e-06C7.20864 -0.00168349 5.38481 0.552521 3.85556 1.5868C2.32631 2.62109 1.16633 4.08494 0.534311 5.77811C-0.0977103 7.47128 -0.170911 9.31107 0.324722 11.0458C0.820354 12.7806 1.86061 14.3256 3.3032 15.4694V25.4118C3.3032 26.2853 4.04562 27 4.95302 27H19.8014C20.7088 27 21.4512 26.2853 21.4512 25.4118V18.8841L28.595 12.0071C30.0798 12.5629 31.8121 12.2771 33 11.1177L27.2256 5.51118ZM3.38569 9.52941C3.3527 9.25941 3.3032 9.0053 3.3032 8.7353C3.3032 5.67 5.89342 3.17647 9.07758 3.17647C12.2617 3.17647 14.852 5.67 14.852 8.7353C14.852 9.0053 14.8025 9.25941 14.7695 9.52941M18.1516 23.8235H6.60285V12.7059H18.1516V23.8235Z" fill="#07964E"/>
  </g>
</svg>
