<svg width="32" height="32" viewBox="0 0 32 32" fill="none" xmlns="http://www.w3.org/2000/svg">
<path d="M0 16C0 11.7565 1.68571 7.68687 4.68629 4.68629C7.68687 1.68571 11.7565 0 16 0C20.2435 0 24.3131 1.68571 27.3137 4.68629C30.3143 7.68687 32 11.7565 32 16C32 20.2435 30.3143 24.3131 27.3137 27.3137C24.3131 30.3143 20.2435 32 16 32C11.7565 32 7.68687 30.3143 4.68629 27.3137C1.68571 24.3131 0 20.2435 0 16ZM16 3C12.5522 3 9.24558 4.36964 6.80761 6.80761C4.36964 9.24558 3 12.5522 3 16C3 19.4478 4.36964 22.7544 6.80761 25.1924C9.24558 27.6304 12.5522 29 16 29C19.4478 29 22.7544 27.6304 25.1924 25.1924C27.6304 22.7544 29 19.4478 29 16C29 12.5522 27.6304 9.24558 25.1924 6.80761C22.7544 4.36964 19.4478 3 16 3ZM13 15.5C13 15.1022 13.158 14.7206 13.4393 14.4393C13.7206 14.158 14.1022 14 14.5 14H16.5C16.8978 14 17.2794 14.158 17.5607 14.4393C17.842 14.7206 18 15.1022 18 15.5V21H18.5C18.8978 21 19.2794 21.158 19.5607 21.4393C19.842 21.7206 20 22.1022 20 22.5C20 22.8978 19.842 23.2794 19.5607 23.5607C19.2794 23.842 18.8978 24 18.5 24H14.5C14.1022 24 13.7206 23.842 13.4393 23.5607C13.158 23.2794 13 22.8978 13 22.5C13 22.1022 13.158 21.7206 13.4393 21.4393C13.7206 21.158 14.1022 21 14.5 21H15V17H14.5C14.1022 17 13.7206 16.842 13.4393 16.5607C13.158 16.2794 13 15.8978 13 15.5ZM16 12C15.4696 12 14.9609 11.7893 14.5858 11.4142C14.2107 11.0391 14 10.5304 14 10C14 9.46957 14.2107 8.96086 14.5858 8.58579C14.9609 8.21071 15.4696 8 16 8C16.5304 8 17.0391 8.21071 17.4142 8.58579C17.7893 8.96086 18 9.46957 18 10C18 10.5304 17.7893 11.0391 17.4142 11.4142C17.0391 11.7893 16.5304 12 16 12Z" fill="#1169EE"/>
</svg>
