<?xml version="1.0" ?><svg height="200" id="svg2" version="1.1" width="200" xmlns="http://www.w3.org/2000/svg" xmlns:cc="http://creativecommons.org/ns#" xmlns:dc="http://purl.org/dc/elements/1.1/" xmlns:inkscape="http://www.inkscape.org/namespaces/inkscape" xmlns:rdf="http://www.w3.org/1999/02/22-rdf-syntax-ns#" xmlns:sodipodi="http://sodipodi.sourceforge.net/DTD/sodipodi-0.dtd" xmlns:svg="http://www.w3.org/2000/svg"><defs id="defs4"><clipPath clipPathUnits="userSpaceOnUse" id="clipPath18"><path d="m 0,551.986 530.973,0 L 530.973,0 0,0 0,551.986 z" id="path20"/></clipPath><clipPath clipPathUnits="userSpaceOnUse" id="clipPath18-7"><path d="m 0,551.986 530.973,0 L 530.973,0 0,0 0,551.986 z" id="path20-4"/></clipPath></defs><g id="layer1" style="display:inline" transform="translate(0,-852.36218)"><path d="M 100 10 C 50.29437 10 10 50.29437 10 100 C 10 149.70567 50.29437 190 100 190 C 100.75044 190 101.47964 189.916 102.21875 189.875 C 102.47878 189.861 102.73968 189.85675 103 189.84375 C 103.93792 189.79775 104.87645 189.7477 105.8125 189.6875 C 106.29439 189.65657 106.77866 189.59717 107.25 189.53125 C 107.72134 189.46533 108.17976 189.3929 108.65625 189.34375 C 110.71955 189.13094 112.79017 188.94084 114.8125 188.59375 C 118.22137 188.00875 121.57698 187.2587 124.84375 186.3125 C 130.51682 184.6692 135.96208 182.5305 141.125 179.875 C 159.21425 170.5709 173.56721 155.26452 181.90625 136.65625 C 181.96935 136.51539 182.06257 136.39124 182.125 136.25 C 183.82639 132.40089 185.3428 128.45478 186.5 124.34375 C 187.17583 121.94282 187.66632 119.4721 188.15625 117 C 188.31905 116.17855 188.58265 115.394 188.71875 114.5625 C 189.03001 112.66084 189.12431 110.69026 189.3125 108.75 C 189.48647 106.95638 189.76272 105.19563 189.84375 103.375 C 189.89375 102.25049 190 101.13693 190 100 C 190 96.34978 189.70363 92.78648 189.28125 89.25 C 189.19555 88.53225 189.03998 87.83748 188.9375 87.125 C 182.66932 43.54488 145.31458 10 100 10 z " id="path6904" style="fill:#258bdc;fill-opacity:1;stroke:none" transform="translate(0,852.36218)"/><path d="" id="path6013" style="fill:#000000"/><path d="" id="path6011" style="fill:#000000"/><path d="" id="path6009" style="fill:#000000"/></g><g id="layer14" style="display:inline"/><g id="layer13" style="display:inline"><path d="m 54.84375,67.12499 c -1.31851,0.0256 -2.50762,0.32267 -3.375,0.84375 l 48.6875,29.15625 48.4375,-29.125 c -0.80772,-0.50236 -1.92664,-0.77637 -3.15625,-0.84375 l -90.59375,-0.0312 z m -3.375,5.75 C 50.565,73.42532 50,74.18786 50,75.03124 l 0,54.8125 c 0,1.68677 2.23,3.03127 5,3.03127 l 90,0 c 2.77,0 5,-1.3445 5,-3.03127 l 0,-54.8125 c 0,-0.8243 -0.53837,-1.57786 -1.40625,-2.125 l -48.4375,29.5 -48.6875,-29.53125 z" id="path6875" style="fill:#f9f9f9;fill-opacity:0.94117647000000004;stroke:none;display:inline"/><path d="M 99,10.000001 C 49.294368,10.000001 9.000002,50.29437 9.000002,100 c 0,49.70566 40.294366,90 89.999998,90 L 99,10.000001 z" id="rect2995" style="opacity:0.15;fill:#ffffff;fill-opacity:1;fill-rule:nonzero;stroke:none;display:inline"/></g></svg>