<svg width="200" height="200" viewBox="0 0 200 200" fill="none" xmlns="http://www.w3.org/2000/svg">
<g clip-path="url(#clip0_1094_996)">
<path d="M100 0C44.7715 0 0 44.7715 0 100C0 155.229 44.7715 200 100 200C100.834 200 101.644 199.907 102.465 199.861C102.754 199.846 103.044 199.841 103.333 199.826C104.375 199.775 105.418 199.72 106.458 199.653C106.994 199.618 107.532 199.552 108.056 199.479C108.579 199.406 109.089 199.325 109.618 199.271C111.911 199.034 114.211 198.823 116.458 198.438C120.246 197.788 123.974 196.954 127.604 195.903C133.908 194.077 139.958 191.701 145.694 188.75C165.794 178.412 181.741 161.405 191.007 140.729C191.077 140.573 191.181 140.435 191.25 140.278C193.14 136.001 194.825 131.616 196.111 127.049C196.862 124.381 197.407 121.636 197.951 118.889C198.132 117.976 198.425 117.104 198.576 116.181C198.922 114.068 199.027 111.878 199.236 109.722C199.429 107.729 199.736 105.773 199.826 103.75C199.882 102.501 200 101.263 200 100C200 95.9442 199.671 91.985 199.201 88.0556C199.106 87.2581 198.933 86.4861 198.819 85.6944C191.855 37.2721 150.35 0 100 0Z" fill="#258BDC"/>
<path d="M51.425 64C49.9483 64.0288 48.6165 64.3632 47.645 64.9496L102.175 97.7642L156.425 64.9848C155.52 64.4194 154.267 64.111 152.89 64.0352L51.425 64ZM47.645 70.4715C46.6328 71.0909 46 71.9491 46 72.8983V134.588C46 136.487 48.4976 138 51.6 138H152.4C155.502 138 158 136.487 158 134.588V72.8983C158 71.9706 157.397 71.1224 156.425 70.5067L102.175 103.708L47.645 70.4715Z" fill="#F9F9F9" fill-opacity="0.941176"/>
<path opacity="0.15" d="M101 0C45.2192 0 0 44.9954 0 100.5C0 156.005 45.2192 201 101 201V0Z" fill="white"/>
</g>
<defs>
<clipPath id="clip0_1094_996">
<rect width="200" height="200" fill="white"/>
</clipPath>
</defs>
</svg>
