<svg xmlns="http://www.w3.org/2000/svg" xmlns:xlink="http://www.w3.org/1999/xlink" width="314" height="250" viewBox="0 0 314 250"><defs><path id="d" d="M133.006939,0 L133.005448,6.44504223 C111.273229,8.12334163 88.8802268,9 66.003623,9 C43.4778218,9 21.4209047,8.15002182 0.00202577883,6.52168437 L0,0.0783675585 C21.4033658,1.74303335 43.4635826,2.61284246 66.003623,2.61284246 C88.8947597,2.61284246 111.291008,1.71572505 133.006939,0 Z"/><path id="f" d="M133.006939,0 L133.005448,6.44504223 C111.273229,8.12334163 88.8802268,9 66.003623,9 C43.4778218,9 21.4209047,8.15002182 0.00202577883,6.52168437 L0,0.0783675585 C21.4033658,1.74303335 43.4635826,2.61284246 66.003623,2.61284246 C88.8947597,2.61284246 111.291008,1.71572505 133.006939,0 Z"/><radialGradient id="a" cx="66.266%" cy="38.359%" r="68.55%" fx="66.266%" fy="38.359%" gradientTransform="matrix(-.79618 0 0 -.51907 1.19 .583)"><stop offset="0%" stop-color="#FFF"/><stop offset="100%" stop-color="#FFF" stop-opacity="0"/></radialGradient><rect id="b" width="314" height="250" x="0" y="0"/></defs><g fill="none" fill-rule="evenodd"><rect width="314" height="250" fill="url(#a)" opacity=".528"/><g transform="matrix(-1 0 0 1 294 2)"><circle cx="163" cy="55" r="22" fill="#B5F2D0" stroke="#45DE8A" stroke-width="2"/><path fill="#2C303B" d="M152.436973,84.1431226 C147.51145,86.1381986 141.456426,84.8614158 136.381693,84.2222007 C135.374127,84.0953462 135.385358,85.7164485 136.381693,85.8416555 C142.459179,86.6093727 149.003547,87.7428263 154.724855,84.8630633 C161.503465,81.4511702 162.969505,62.3283214 163.00021,55.7846036 C163.004802,54.7384655 161.426068,54.7384655 161.421255,55.7846036 C161.389166,62.776431 159.881412,81.1266202 152.436973,84.1431226 Z"/><circle cx="22" cy="81" r="22" fill="#B5F2D0" stroke="#45DE8A" stroke-width="2"/><circle cx="47" cy="45" r="28" fill="#B5F2D0" stroke="#45DE8A" stroke-width="2"/><polygon fill="#2C303B" points="91 24 94 24 103 248 85 248"/><circle cx="94" cy="22" r="22" fill="#B5F2D0" stroke="#45DE8A" stroke-width="2"/><circle cx="112" cy="26" r="12" fill="#B5F2D0" stroke="#45DE8A" stroke-width="2"/><path fill="#2C303B" d="M45.059021,41.7717241 C44.4918191,57.5453986 48.0372348,73.8140798 54.6400465,88.099488 C61.0602546,101.988891 72.2055291,114.657818 88.23585,115.996771 C89.2587526,116.081165 89.2506728,114.48416 88.23585,114.399765 C72.3137984,113.07055 61.9037856,100.0397 55.6112383,86.4262028 C49.2847558,72.7412946 46.1061629,56.8458972 46.6491254,41.7717241 C46.6862925,40.7411363 45.0961881,40.7443822 45.059021,41.7717241"/><circle cx="125" cy="94" r="38" fill="#B5F2D0" stroke="#45DE8A" stroke-width="2"/><path fill="#2C303B" d="M126.556646,86.7647137 C127.000539,101.013615 128.411893,115.510379 125.535528,129.604768 C124.13393,136.469284 121.386018,143.129394 116.387744,148.197709 C110.482171,154.185048 101.949008,156.17439 93.7719362,156.417424 C92.7443145,156.448005 92.7410626,158.030143 93.7719362,158 C101.366906,157.774232 109.231789,156.159904 115.262563,151.299215 C120.816923,146.824806 124.122548,140.636279 126.114378,133.918227 C130.603719,118.763178 128.639531,102.294777 128.154988,86.7647137 C128.124094,85.7459003 126.525752,85.7442908 126.556646,86.7647137"/><path fill="#2C303B" d="M125.452126,91.7568837 C125.359322,97.9280593 123.684136,104.803831 117.510329,107.428171 C116.605886,107.813074 117.003841,109.327239 117.922441,108.935973 C124.782052,106.02057 126.892943,98.7519431 127,91.7568837 C127.01406,90.7469103 125.467855,90.7485009 125.452126,91.7568837" transform="scale(-1 1) rotate(9 0 -1450.157)"/><path fill="#2C303B" d="M38.1935271 45.5769928C37.0940284 51.1644904 40.8091437 57.3589002 46.0482082 58.9632312 47.0036131 59.256111 47.4092686 57.7119832 46.4585625 57.4207304 42.0621338 56.07511 38.7495414 50.7284248 39.6798865 46.0032958 39.8772324 44.9944872 38.3924393 44.5665572 38.1935271 45.5769928M93.7491043 54.3380421C92.7432922 54.3577517 92.7528047 55.9084629 93.7491043 55.9130565 112.606269 56 113.11203 36.7324901 112.652392 26.7600697 112.606269 25.7490482 111.04286 25.7442415 111.088983 26.7600697 111.508861 35.8656714 111 54 93.7491043 54.3380421ZM17.0321888 79.7713645C15.8494509 103.910262 47.5422959 112.648722 65.5972508 103.37041 66.5114052 102.900477 65.7072729 101.521576 64.7947364 101.989882 47.7655761 110.741351 17.5030188 102.625673 18.6242737 79.7713645 18.6744309 78.7404409 17.0839639 78.745319 17.0321888 79.7713645"/><circle cx="50" cy="127" r="22" fill="#B5F2D0" stroke="#45DE8A" stroke-width="2"/><path fill="#2C303B" d="M19.0026405,78.7815291 C18.8822171,83.981858 22.8957818,88.2502697 27.9799604,88.9898866 C29.0027348,89.1394536 29.4431877,87.5829708 28.4121651,87.4317602 C24.0224833,86.7924025 20.5186561,83.3309951 20.6242328,78.7815291 C20.6489774,77.7378474 19.0257354,77.7411346 19.0026405,78.7815291" transform="matrix(-1 0 0 1 48 0)"/><path fill="#2C303B" d="M45.0280583,125.766757 C44.6182236,138.423472 48.6822815,150.804446 58.2603304,159.512086 C67.7518404,168.1391 81.0412608,170.409536 93.4195745,168.219726 C94.4368136,168.039123 94.0041196,166.510449 92.9917789,166.689439 C80.962886,168.819586 68.7364233,166.44111 59.3967644,158.389768 C49.975465,150.269088 46.2444999,137.781687 46.6331081,125.766757 C46.667397,124.742803 45.0607144,124.746028 45.0280583,125.766757"/><path fill="#2C303B" d="M54.01987,135.989182 C55.0030697,136.147699 55.425798,134.514282 54.4346821,134.355765 C51.7320704,133.921566 47.6295114,131.905641 47.5566818,128.818001 C47.5313497,127.729057 45.9734295,127.725611 46.0003448,128.818001 C46.0890069,132.601738 50.6222106,135.44471 54.01987,135.989182 Z" transform="rotate(-90 50.5 132)"/></g><g style="mix-blend-mode:darken"><mask id="c" fill="#fff"><use xlink:href="#b"/></mask><g fill="#6DD099" mask="url(#c)"><g transform="scale(-1 1) rotate(16 -625.306 -87.519)"><path d="M-6.47930922e-14,63 L20,63 L20,71.0010666 C20,75.457885 18.3465702,79.7562292 15.3597468,83.0641162 L10,89 L10,89 L4.64025317,83.0641162 C1.65342978,79.7562292 -5.7141862e-14,75.457885 -6.47930922e-14,71.0010666 L-6.47930922e-14,63 L-6.47930922e-14,63 Z"/><path d="M8,4 L12,4 L12,72 C12,73.1045695 11.1045695,74 10,74 C8.8954305,74 8,73.1045695 8,72 L8,4 L8,4 Z"/><rect width="4" height="16" x="8" y="-6" rx="2" transform="rotate(90 10 2)"/></g></g><path fill="#6DD099" d="M107,238 C107.003031,237.869851 107.04213,232.471031 107.050313,232 L110,232 C109.502627,232.847991 107.305516,237.499972 107,238 Z M86.8788252,228.172935 C86.1458273,228.797041 86.1895902,232.531127 86.2246446,233.611214 C86.2308695,233.803223 86.2369058,233.984685 86.2369058,234.136059 L86.2369058,236 C84.4419334,233.19866 81.6093202,225.835021 83.7915883,222.220669 C85.2274342,219.84274 88.8213717,217.02558 92.2697472,217.000454 C100.956912,216.936865 102.663289,223.567521 103,224.232572 C102.513797,224.235673 88.7115242,224.241567 86.9655336,224.312601 C86.7494227,224.321286 86.556545,224.448775 86.4663468,224.642645 C86.1343835,225.355775 86.0730462,226.255951 86.6264651,226.946438 C86.7313453,227.077339 86.8893572,227.156127 87.0583727,227.161711 C87.1875866,227.166053 87.3171463,227.169776 87.4465488,227.173808 L87.4465488,227.879494 C87.2088707,227.95301 87.0231926,228.0501 86.8788252,228.172935 Z M117.547296,220.683579 C117.43584,220.608978 116.145106,219.605027 115.566044,219.605027 C115.399966,219.605027 115.241782,219.640115 115.096227,219.709342 C114.788068,219.856015 114.570209,220.101629 114.466331,220.420263 C114.240264,221.111902 114.620727,221.983406 114.867633,222.44081 C114.966775,222.624784 115.073494,222.798958 115.17674,222.967442 C115.445117,223.405881 115.677184,223.784576 115.665502,224.136085 C115.653188,224.508141 113.181912,228.635216 112.239437,229.80133 L107.789436,229.80133 C107.761019,229.630317 107.695346,229.41094 107.509377,229.252255 C107.263102,228.933936 106.890532,228.734158 106.445658,228.609612 L106.445658,227.856332 C106.670779,227.826618 106.898109,227.789634 107.124493,227.742534 C107.226792,227.721355 107.321513,227.672675 107.398237,227.601551 C108.005084,227.04236 107.926781,226.535959 107.754389,225.510828 C107.726288,225.34266 107.625252,225.195671 107.47875,225.108742 C107.08471,224.875456 106.585214,224.843213 106.10403,224.843213 C106.059827,224.843213 106.015624,224.843529 105.971105,224.844162 C104.926172,222.340289 103.480853,219.479849 101.67089,217.980876 C99.5692161,216.240082 97.0128494,215.247511 94.0725462,215.031294 C93.79214,215.010431 93.4717929,215 93.1205037,215 C92.7749924,215 92.402233,215.010431 92.042703,215.030346 C88.3568178,215.234866 84.9900167,216.769875 82.8055569,219.242138 C80.765389,221.550973 79.8065581,224.553977 80.0323734,227.926824 C80.2340664,230.93931 81.2933649,233.324644 82.4081384,235.453299 C83.0755754,236.728469 84.0492459,238.222068 85.3020282,239.892686 C85.3894875,240.009329 85.4857242,240.130082 85.5874863,240.258104 C85.7804965,240.500557 86.1399002,240.952272 86.1816722,241.110957 C86.3478448,241.767825 86.2870653,242.852699 86.2283066,243.901854 C86.1966698,244.467367 86.163991,245.051846 86.163991,245.59618 C86.163991,245.870244 86.1544241,246.155371 86.1451099,246.431015 C86.1016328,247.727364 86.0568929,248.875776 86.9662793,249.739061 C87.0686098,249.836105 87.2026087,249.892372 87.3434591,249.89743 C89.9744029,249.990997 106.328519,250.114278 106.740556,249.786477 C107.624305,249.083141 107.511271,247.652764 107.402026,246.269169 C107.342667,245.51905 107.281414,244.743327 107.391607,244.198361 C107.467384,243.824408 108.42312,243.141936 108.831053,242.593809 C109.059331,242.28687 117.661277,227.823773 117.72695,227.719142 C118.059106,227.189982 118.615119,226.304254 118.965272,226.203732 C119.045785,226.180972 119.160397,226.169276 119.306268,226.169276 C119.57054,226.169276 119.88975,226.206893 120.227273,226.246406 C120.597949,226.290029 120.981254,226.335232 121.338984,226.335232 C122.608248,226.335232 122.941982,225.686899 122.998499,225.142881 C123.095115,224.213531 118.497665,221.320848 117.547296,220.683579 L117.547296,220.683579 Z" mask="url(#c)"/></g><g transform="translate(0 182)"><g transform="translate(2.996 2.914)"><mask id="e" fill="#fff"><use xlink:href="#d"/></mask><use xlink:href="#d" fill="#979797" fill-rule="nonzero"/><polygon fill="#2C303B" points="2.004 -2.914 10.879 -2.914 -.121 11.086 -8.996 11.086" mask="url(#e)"/><polygon fill="#2C303B" points="73.004 -2.914 81.879 -2.914 70.879 11.086 62.004 11.086" mask="url(#e)"/><polygon fill="#2C303B" points="37.504 -2.914 46.379 -2.914 35.379 11.086 26.504 11.086" mask="url(#e)"/><polygon fill="#2C303B" points="108.504 -2.914 117.379 -2.914 106.379 11.086 97.504 11.086" mask="url(#e)"/><polygon fill="#2C303B" points="19.754 -2.914 28.629 -2.914 17.629 11.086 8.754 11.086" mask="url(#e)"/><polygon fill="#2C303B" points="90.754 -2.914 99.629 -2.914 88.629 11.086 79.754 11.086" mask="url(#e)"/><polygon fill="#2C303B" points="55.254 -2.914 64.129 -2.914 53.129 11.086 44.254 11.086" mask="url(#e)"/><polygon fill="#2C303B" points="126.254 -2.914 135.129 -2.914 124.129 11.086 115.254 11.086" mask="url(#e)"/><polygon fill="#E5CD7C" points="10.879 -2.914 19.754 -2.914 8.754 11.086 -.121 11.086" mask="url(#e)"/><polygon fill="#E5CD7C" points="81.879 -2.914 90.754 -2.914 79.754 11.086 70.879 11.086" mask="url(#e)"/><polygon fill="#E5CD7C" points="46.379 -2.914 55.254 -2.914 44.254 11.086 35.379 11.086" mask="url(#e)"/><polygon fill="#E5CD7C" points="117.379 -2.914 126.254 -2.914 115.254 11.086 106.379 11.086" mask="url(#e)"/><polygon fill="#E5CD7C" points="28.629 -2.914 37.504 -2.914 26.504 11.086 17.629 11.086" mask="url(#e)"/><polygon fill="#E5CD7C" points="99.629 -2.914 108.504 -2.914 97.504 11.086 88.629 11.086" mask="url(#e)"/><polygon fill="#E5CD7C" points="64.129 -2.914 73.004 -2.914 62.004 11.086 53.129 11.086" mask="url(#e)"/><polygon fill="#E5CD7C" points="135.129 -2.914 144.004 -2.914 133.004 11.086 124.129 11.086" mask="url(#e)"/></g><g transform="translate(135.996 2.914)"><mask id="g" fill="#fff"><use xlink:href="#f"/></mask><use xlink:href="#f" fill="#979797" fill-rule="nonzero"/><polygon fill="#2C303B" points="2.004 -2.914 10.879 -2.914 -.121 11.086 -8.996 11.086" mask="url(#g)"/><polygon fill="#2C303B" points="73.004 -2.914 81.879 -2.914 70.879 11.086 62.004 11.086" mask="url(#g)"/><polygon fill="#2C303B" points="37.504 -2.914 46.379 -2.914 35.379 11.086 26.504 11.086" mask="url(#g)"/><polygon fill="#2C303B" points="108.504 -2.914 117.379 -2.914 106.379 11.086 97.504 11.086" mask="url(#g)"/><polygon fill="#2C303B" points="19.754 -2.914 28.629 -2.914 17.629 11.086 8.754 11.086" mask="url(#g)"/><polygon fill="#2C303B" points="90.754 -2.914 99.629 -2.914 88.629 11.086 79.754 11.086" mask="url(#g)"/><polygon fill="#2C303B" points="55.254 -2.914 64.129 -2.914 53.129 11.086 44.254 11.086" mask="url(#g)"/><polygon fill="#2C303B" points="126.254 -2.914 135.129 -2.914 124.129 11.086 115.254 11.086" mask="url(#g)"/><polygon fill="#E5CD7C" points="10.879 -2.914 19.754 -2.914 8.754 11.086 -.121 11.086" mask="url(#g)"/><polygon fill="#E5CD7C" points="81.879 -2.914 90.754 -2.914 79.754 11.086 70.879 11.086" mask="url(#g)"/><polygon fill="#E5CD7C" points="46.379 -2.914 55.254 -2.914 44.254 11.086 35.379 11.086" mask="url(#g)"/><polygon fill="#E5CD7C" points="117.379 -2.914 126.254 -2.914 115.254 11.086 106.379 11.086" mask="url(#g)"/><polygon fill="#E5CD7C" points="28.629 -2.914 37.504 -2.914 26.504 11.086 17.629 11.086" mask="url(#g)"/><polygon fill="#E5CD7C" points="99.629 -2.914 108.504 -2.914 97.504 11.086 88.629 11.086" mask="url(#g)"/><polygon fill="#E5CD7C" points="64.129 -2.914 73.004 -2.914 62.004 11.086 53.129 11.086" mask="url(#g)"/><polygon fill="#E5CD7C" points="135.129 -2.914 144.004 -2.914 133.004 11.086 124.129 11.086" mask="url(#g)"/></g><rect width="6" height="68" x="266" fill="#2C303B"/><rect width="6" height="68" x="133" fill="#2C303B"/><rect width="6" height="68" fill="#2C303B"/></g></g></svg>