<?xml version="1.0" standalone="no"?>
<!DOCTYPE svg PUBLIC "-//W3C//DTD SVG 20010904//EN"
 "http://www.w3.org/TR/2001/REC-SVG-20010904/DTD/svg10.dtd">
<svg version="1.0" xmlns="http://www.w3.org/2000/svg"
 width="700.000000pt" height="700.000000pt" viewBox="0 0 700.000000 700.000000"
 preserveAspectRatio="xMidYMid meet">
<metadata>
Created by potrace 1.14, written by Peter Selinger 2001-2017
</metadata>
<g transform="translate(0.000000,700.000000) scale(0.100000,-0.100000)"
fill="#000000" stroke="none">
<path d="M3878 6995 c-1 -1 -34 -6 -73 -10 -70 -6 -119 -13 -159 -21 -11 -2
-34 -7 -49 -9 -400 -74 -854 -292 -1152 -555 -54 -47 -233 -227 -270 -270
-145 -171 -284 -393 -374 -597 -55 -126 -122 -325 -138 -412 -2 -14 -6 -27 -8
-31 -9 -14 -41 -230 -51 -338 -4 -55 -4 -296 0 -362 16 -223 93 -549 171 -727
13 -29 23 -53 22 -54 -1 0 -41 -2 -89 -4 -485 -20 -898 -283 -1111 -710 -54
-110 -99 -257 -122 -405 -6 -43 -7 -298 -1 -308 3 -5 7 -26 10 -47 19 -155 89
-339 189 -495 58 -89 68 -102 177 -211 127 -127 263 -215 445 -288 72 -29 241
-68 315 -73 l55 -3 3 340 2 340 -335 333 c-201 199 -337 343 -341 358 -20 79
40 164 116 164 23 0 53 -6 68 -14 15 -8 131 -119 257 -245 l230 -231 5 243 5
244 27 35 c20 26 40 39 74 47 42 11 51 10 93 -11 86 -43 81 14 81 -833 0 -596
-2 -750 -12 -757 -7 -4 -31 -8 -53 -9 -22 -1 -47 -3 -55 -4 -8 -1 -48 -3 -88
-4 l-73 -1 3 -489 3 -489 25 -27 c71 -77 177 -69 230 17 19 32 20 52 20 519
l0 487 38 6 c79 14 236 70 327 116 131 67 213 127 325 239 223 223 349 503
366 816 4 61 8 111 9 113 2 2 20 -5 42 -16 37 -19 222 -90 253 -98 8 -2 56
-15 105 -29 80 -24 109 -27 265 -28 l175 -2 5 -1015 c4 -785 8 -1020 17 -1037
18 -31 67 -63 107 -70 50 -8 116 26 141 73 19 35 19 63 19 1040 0 901 1 1004
15 1005 9 1 113 1 231 1 197 -1 223 1 310 24 435 112 818 332 1140 654 230
231 387 467 533 801 57 128 120 365 148 554 33 218 30 570 -5 725 -3 14 -8 43
-11 65 -10 71 -67 277 -102 370 -19 50 -39 104 -45 120 -25 67 -143 286 -204
378 -413 620 -1046 1008 -1798 1103 -40 5 -473 14 -478 9z m197 -1573 c16 -10
38 -33 49 -52 20 -33 20 -52 20 -532 -1 -449 1 -497 15 -485 8 6 181 176 383
376 202 201 373 368 381 372 47 27 123 14 159 -27 23 -27 36 -84 27 -120 -6
-22 -138 -159 -470 -490 -254 -252 -469 -467 -478 -477 -14 -16 -16 -103 -16
-905 l-1 -887 -142 0 -142 0 0 494 0 494 -499 496 c-441 438 -501 500 -506
533 -4 21 -4 49 -1 64 7 27 59 83 79 85 7 0 25 3 40 5 19 3 42 -3 70 -20 23
-14 215 -199 427 -411 l385 -384 5 897 c5 968 3 932 58 968 54 35 103 37 157
6z"/>
</g>
</svg>
