<svg width="26" height="26" viewBox="0 0 26 26" fill="none" xmlns="http://www.w3.org/2000/svg">
<path d="M21.2012 5.34215C20.4991 3.75285 19.3501 2.40179 17.8941 1.45336C16.4381 0.50493 14.7378 0 13 0C11.2622 0 9.56188 0.50493 8.10587 1.45336C6.64985 2.40179 5.50091 3.75285 4.79881 5.34215C3.36638 6.04132 2.15797 7.12692 1.31001 8.47641C0.462049 9.82589 0.00831485 11.3855 3.05358e-05 12.9792C-0.012297 17.5731 3.7095 21.3994 8.29311 21.5159C9.44251 21.547 10.5863 21.3446 11.6552 20.921V24.6555C11.6552 25.012 11.7969 25.354 12.0491 25.6062C12.3013 25.8583 12.6433 26 13 26C13.3567 26 13.6987 25.8583 13.9509 25.6062C14.2031 25.354 14.3448 25.012 14.3448 24.6555V20.921C15.3436 21.3167 16.4084 21.5193 17.4827 21.5182H17.7069C22.295 21.4061 26.0168 17.5719 25.9999 12.9814C25.9921 11.3874 25.5385 9.82728 24.6906 8.47736C23.8426 7.12744 22.6339 6.04148 21.2012 5.34215ZM17.634 18.8291C16.47 18.8615 15.3234 18.5412 14.3448 17.9103V13.8341L18.9811 11.5159C19.1416 11.4384 19.2852 11.3299 19.4033 11.1965C19.5215 11.0631 19.612 10.9075 19.6696 10.7388C19.7271 10.5702 19.7505 10.3917 19.7384 10.2139C19.7264 10.0361 19.6791 9.86252 19.5993 9.70315C19.5195 9.54379 19.4089 9.40187 19.2738 9.28565C19.1386 9.16943 18.9818 9.08122 18.8122 9.02615C18.6427 8.97109 18.4639 8.95026 18.2863 8.96489C18.1087 8.97952 17.9357 9.02931 17.7775 9.11137L14.3448 10.8268V8.52089C14.3448 8.16429 14.2031 7.8223 13.9509 7.57015C13.6987 7.318 13.3567 7.17634 13 7.17634C12.6433 7.17634 12.3013 7.318 12.0491 7.57015C11.7969 7.8223 11.6552 8.16429 11.6552 8.52089V13.5159L8.2225 11.8005C7.90431 11.647 7.53848 11.6248 7.20409 11.7388C6.8697 11.8528 6.5936 12.0938 6.43549 12.4097C6.27737 12.7256 6.24993 13.0909 6.3591 13.4269C6.46827 13.7628 6.70527 14.0423 7.01889 14.205L11.6552 16.5232V17.9103C10.6768 18.5418 9.53001 18.8621 8.36595 18.8291C7.04967 18.7957 5.78349 18.3177 4.77372 17.4728C3.76394 16.628 3.07009 15.4662 2.80522 14.1766C2.54035 12.8871 2.72007 11.5459 3.3151 10.3716C3.91013 9.19724 4.8854 8.25898 6.08199 7.70968C6.59091 7.47523 6.99354 7.05869 7.21052 6.54216C7.68816 5.40089 8.49259 4.42625 9.52269 3.74077C10.5528 3.05529 11.7626 2.68957 13 2.68957C14.2374 2.68957 15.4472 3.05529 16.4773 3.74077C17.5074 4.42625 18.3118 5.40089 18.7894 6.54216C19.0064 7.05869 19.4091 7.47523 19.918 7.70968C21.1146 8.25898 22.0898 9.19724 22.6849 10.3716C23.2799 11.5459 23.4596 12.8871 23.1948 14.1766C22.9299 15.4662 22.236 16.628 21.2263 17.4728C20.2165 18.3177 18.9503 18.7957 17.634 18.8291Z" fill="#232323"/>
</svg>
