<svg width="46" height="37" viewBox="0 0 46 37" fill="none" xmlns="http://www.w3.org/2000/svg">
<path d="M43.2314 3.28748C42.8264 2.30944 42.1635 1.47803 41.3235 0.894377C40.4835 0.310726 39.5026 0 38.5 0C37.4974 0 36.5165 0.310726 35.6765 0.894377C34.8365 1.47803 34.1736 2.30944 33.7685 3.28748C32.9421 3.71773 32.245 4.3858 31.7558 5.21625C31.2666 6.0467 31.0048 7.00647 31 7.98719C30.9929 10.8142 33.1401 13.1689 35.7845 13.2406C36.4476 13.2597 37.1075 13.1352 37.7241 12.8744V15.1726C37.7241 15.392 37.8059 15.6025 37.9514 15.7577C38.0969 15.9128 38.2942 16 38.5 16C38.7058 16 38.9031 15.9128 39.0486 15.7577C39.1941 15.6025 39.2759 15.392 39.2759 15.1726V12.8744C39.8521 13.1179 40.4664 13.2427 41.0862 13.242H41.2155C43.8625 13.173 46.0097 10.8135 46 7.98857C45.9954 7.00761 45.7338 6.04756 45.2446 5.21684C44.7553 4.38612 44.058 3.71784 43.2314 3.28748ZM41.1735 11.5871C40.5019 11.6071 39.8404 11.41 39.2759 11.0217V8.51329L41.9506 7.08669C42.0432 7.03903 42.1261 6.97222 42.1942 6.89013C42.2624 6.80804 42.3146 6.71231 42.3478 6.60851C42.381 6.50472 42.3945 6.39492 42.3876 6.2855C42.3806 6.17609 42.3533 6.06924 42.3073 5.97117C42.2613 5.8731 42.1974 5.78577 42.1195 5.71425C42.0415 5.64272 41.951 5.58844 41.8532 5.55455C41.7554 5.52067 41.6523 5.50785 41.5498 5.51686C41.4473 5.52586 41.3475 5.5565 41.2562 5.60699L39.2759 6.66264V5.24362C39.2759 5.02418 39.1941 4.81372 39.0486 4.65855C38.9031 4.50338 38.7058 4.41621 38.5 4.41621C38.2942 4.41621 38.0969 4.50338 37.9514 4.65855C37.8059 4.81372 37.7241 5.02418 37.7241 5.24362V8.31746L35.7438 7.26182C35.5602 7.16736 35.3491 7.15374 35.1562 7.22389C34.9633 7.29405 34.804 7.44234 34.7128 7.63672C34.6216 7.83111 34.6057 8.05597 34.6687 8.2627C34.7317 8.46943 34.8684 8.64143 35.0494 8.74151L37.7241 10.1681V11.0217C37.1597 11.4103 36.4981 11.6074 35.8265 11.5871C35.0671 11.5666 34.3366 11.2724 33.7541 10.7525C33.1715 10.2326 32.7712 9.51763 32.6184 8.72408C32.4656 7.93053 32.5693 7.10518 32.9126 6.38251C33.2558 5.65984 33.8185 5.08245 34.5088 4.74442C34.8025 4.60014 35.0347 4.34381 35.1599 4.02594C35.4355 3.32362 35.8996 2.72385 36.4939 2.30201C37.0881 1.88018 37.7861 1.65512 38.5 1.65512C39.2139 1.65512 39.9118 1.88018 40.5061 2.30201C41.1004 2.72385 41.5645 3.32362 41.8401 4.02594C41.9652 4.34381 42.1975 4.60014 42.4911 4.74442C43.1815 5.08245 43.7441 5.65984 44.0874 6.38251C44.4307 7.10518 44.5344 7.93053 44.3816 8.72408C44.2288 9.51763 43.8285 10.2326 43.2459 10.7525C42.6634 11.2724 41.9329 11.5666 41.1735 11.5871Z" fill="black"/>
<g clip-path="url(#clip0_4452_6344)">
<path d="M17.4999 10.6H17.4998C17.0733 10.6 16.6642 10.7695 16.3626 11.0711C16.061 11.3727 15.8915 11.7818 15.8915 12.2083V19.5H15.8911L15.8919 19.5103L15.905 19.7013L15.9047 19.7013L15.9059 19.7107C15.9522 20.0613 16.1127 20.3869 16.3627 20.6371L16.3627 20.6371L20.7377 25.0121L20.7375 25.0123L20.7445 25.0185L20.8816 25.1395L20.8814 25.1398L20.8891 25.1457C21.2124 25.3957 21.6187 25.5132 22.0255 25.4745C22.4322 25.4357 22.809 25.2436 23.0793 24.9371C23.3495 24.6306 23.493 24.2327 23.4805 23.8243C23.468 23.4159 23.3006 23.0275 23.0121 22.7381L23.0119 22.7379L19.1082 18.8341V12.2083H19.1084L19.1079 12.1994L19.0977 12.0288L19.0979 12.0287L19.0969 12.0202C19.0508 11.6289 18.8628 11.2682 18.5684 11.0065C18.274 10.7447 17.8938 10.6001 17.4999 10.6ZM32.2332 19.5C32.2332 11.3628 25.6371 4.76667 17.4998 4.76667C9.36262 4.76667 2.7665 11.3628 2.7665 19.5C2.7665 27.6372 9.36262 34.2333 17.4998 34.2333C25.6371 34.2333 32.2332 27.6372 32.2332 19.5ZM9.35632 11.3565C11.5161 9.19669 14.4454 7.98333 17.4998 7.98333C20.5542 7.98333 23.4836 9.19669 25.6433 11.3565C27.8031 13.5163 29.0165 16.4456 29.0165 19.5C29.0165 22.5544 27.8031 25.4837 25.6433 27.6435C23.4836 29.8033 20.5542 31.0167 17.4998 31.0167C14.4454 31.0167 11.5161 29.8033 9.35632 27.6435C7.19653 25.4837 5.98317 22.5544 5.98317 19.5C5.98317 16.4456 7.19653 13.5163 9.35632 11.3565Z" fill="black" stroke="black" stroke-width="0.3"/>
</g>
<defs>
<clipPath id="clip0_4452_6344">
<rect width="35" height="35" fill="white" transform="translate(0 2)"/>
</clipPath>
</defs>
</svg>
