<?xml version="1.0" encoding="utf-8"?><!DOCTYPE svg PUBLIC "-//W3C//DTD SVG 1.1//EN" "http://www.w3.org/Graphics/SVG/1.1/DTD/svg11.dtd"><svg version="1.1" id="Ebene_1" xmlns="http://www.w3.org/2000/svg" xmlns:xlink="http://www.w3.org/1999/xlink" x="0px" y="0px" width="350px" height="400px" viewBox="0 0 350 400" enable-background="new 0 0 350 400" xml:space="preserve"><g transform="translate(-20,-175)"><path d="M158.883,493.061v26.268h12.354l-0.128,3.616h-16.049V493.06L158.883,493.061L158.883,493.061z M97.192,493.061v29.885
		h17.092l0.122-3.537h-13.428v-10.372h10.948v-3.301h-10.948v-9.089h12.789l-0.08-3.585L97.192,493.061L97.192,493.061z
		 M139.258,501.661c0-3.904-1.52-5.217-4.907-5.217h-5.227v10.604h5.071C137.701,507.048,139.258,505.694,139.258,501.661z
		 M137.824,509.435l7.131,13.51h-4.461l-6.143-12.794h-5.227v12.794h-3.776V493.06h8.969c6.015,0,8.841,2.59,8.841,8.451
		C143.159,506.209,141.284,508.799,137.824,509.435z M76.769,519.606c3.27,0,5.102-1.357,5.102-5.426
		c0-3.665-1.676-5.182-5.267-5.182h-6.342v10.607H76.769z M70.262,505.931h6.143c3.109,0,4.509-1.51,4.509-4.788
		c0-3.461-1.433-4.661-4.661-4.661h-5.99L70.262,505.931L70.262,505.931z M80.633,507.127c3.146,0.796,5.018,3.067,5.018,7.33
		c0,5.385-2.546,8.487-8.928,8.487H66.601v-29.883h9.767c5.462,0,8.214,2.424,8.214,7.414c0,3.66-1.596,5.732-3.947,6.566
		L80.633,507.127L80.633,507.127z M181.397,522.944h3.858V493.06h-1.929h-1.929V522.944z M215.446,493.061v19.484l0.078,3.188
		l-0.078,0.045l-1.636-2.791l-11.843-19.926h-3.452v29.885h3.378v-20.083l-0.046-3.225l0.089-0.041l1.591,2.792l12.475,20.556h2.742
		v-29.885H215.446z M271.708,462.472c-0.84,0.24-1.791,0.317-2.833,0.317c-4.585,0-6.184-1.951-6.184-9.724
		c0-7.657,1.638-9.729,6.986-9.729c2.23,0,4.653,0.478,6.524,1.23l0.637-5.565c-2.065-0.842-4.931-1.354-7.526-1.354
		c-9.203,0-13.187,4.815-13.187,15.499c0,10.438,3.533,15.457,12.911,15.457c3.032,0,6.248-0.682,8.281-1.631v-15.103h-5.61V462.472
		z M126.686,438.157h-3.207h-3.208v29.887h6.414L126.686,438.157L126.686,438.157z M97.966,468.045h6.329v-24.033h7.262
		l-0.121-5.854H90.874l-0.158,5.854h7.25L97.966,468.045L97.966,468.045z M73.585,462.947c-2.67,0-5.101-0.761-7.413-1.992
		l-0.834,5.499c2.311,1.355,5.262,2.107,8.367,2.107c6.458,0,10.204-3.505,10.204-9.359c0-9.805-12.434-8.053-12.434-12.834
		c0-1.68,0.954-2.952,4.342-2.952c2.04,0,4.187,0.397,6.42,1.15l0.716-5.406c-2.07-0.962-4.818-1.48-7.533-1.48
		c-6.902,0-9.968,3.907-9.968,8.962c0,9.774,12.442,8.058,12.442,12.96C77.896,461.791,76.578,462.947,73.585,462.947z
		 M240.613,453.064l0.085,3.184l-0.085,0.042l-11.08-18.133h-5.378v29.887h5.536v-15.7l-0.043-3.233l0.085-0.033l1.674,2.788
		l10.243,16.178h4.459v-29.886h-5.493v14.907H240.613z M154.112,450.676h-9.76v-6.664h11.677l-0.085-5.854h-17.848v29.883h6.256
		v-11.831h9.681L154.112,450.676z M213.435,457.891v-19.733h-6.252v19.646c0,3.472-1.357,4.904-4.708,4.904
		c-3.351,0-4.746-1.476-4.746-4.904v-19.646h-6.286v19.733c0,7.168,3.777,10.671,11.033,10.671
		C209.728,468.561,213.435,465.059,213.435,457.891z M183.355,438.157h-20.561l-0.161,5.854h7.255v24.033h6.33v-24.033h7.26
		L183.355,438.157z M202.728,411.473v-29.88h-5.496v14.899l0.077,3.186l-0.077,0.04l-11.08-18.125h-5.378v29.88h5.533v-15.695
		l-0.04-3.229l0.08-0.041l1.672,2.788l10.25,16.177L202.728,411.473L202.728,411.473z M69.919,411.473h6.33v-24.027h7.252
		l-0.115-5.853H62.819l-0.16,5.853h7.26V411.473z M358.641,405.82v-7.096h9.849v-5.254h-9.849v-6.146h11.714l-0.119-5.731h-17.848
		v29.88h18.409l0.16-5.652L358.641,405.82L358.641,405.82z M263.867,405.661h-11v-24.075h-6.287v29.886h17.131L263.867,405.661z
		 M154.095,399.083h9.247v12.391h6.256v-29.88h-6.256v11.676h-9.247v-11.676h-6.253v29.88h6.253V399.083z M110.982,405.82H98.663
		v-7.096h9.848v-5.254h-9.848v-6.146h11.722l-0.125-5.731H92.417v29.88h18.403L110.982,405.82z M229.938,396.537
		c0-7.938-1.354-9.611-5.424-9.611c-4.025,0-5.421,1.714-5.421,9.611c0,7.926,1.396,9.683,5.461,9.683
		C228.585,406.22,229.938,404.426,229.938,396.537z M224.515,411.994c-8.329,0-11.992-4.421-11.992-15.457
		c0-11.042,3.506-15.425,11.992-15.425c8.49,0,11.993,4.382,11.993,15.425C236.508,407.815,233.003,411.994,224.515,411.994z
		 M334.733,411.473h6.412v-29.88h-3.206h-3.204v29.88H334.733z M131.759,411.994c2.354,0,4.941-0.597,6.696-1.472l-0.634-5.302
		c-1.477,0.681-3.19,1.119-5.139,1.119c-4.907,0-6.62-2.19-6.62-10.008c0-7.331,1.628-9.449,6.496-9.449
		c1.958,0,3.823,0.404,5.178,0.918l0.644-5.538c-1.518-0.67-4.15-1.191-6.255-1.191c-8.73,0-12.634,5.012-12.634,15.26
		C119.489,407.219,123.43,411.994,131.759,411.994z M287.814,396.533c0-7.934-1.358-9.607-5.42-9.607
		c-4.031,0-5.429,1.714-5.429,9.607c0,7.93,1.397,9.691,5.464,9.691C286.456,406.225,287.814,404.426,287.814,396.533z
		 M294.384,396.533c0,11.282-3.504,15.461-11.989,15.461c-8.328,0-11.999-4.418-11.999-15.461c0-11.038,3.512-15.421,11.999-15.421
		C290.881,381.112,294.384,385.494,294.384,396.533z M318.489,405.901c-0.837,0.243-1.795,0.318-2.831,0.318
		c-4.586,0-6.182-1.95-6.182-9.722c0-7.662,1.636-9.729,6.977-9.729c2.238,0,4.661,0.476,6.532,1.23l0.637-5.567
		c-2.067-0.838-4.931-1.359-7.524-1.359c-9.206,0-13.19,4.817-13.19,15.504c0,10.441,3.547,15.458,12.911,15.458
		c3.032,0,6.257-0.672,8.28-1.634v-15.104h-5.609V405.901z"/></g><g transform="scale(0.5) translate(0,30)"><polygon fill="#E60032" points="46.717,336.782 12.025,232.872 13.66,231.87 128.743,251.104 127.838,252.05"/><polygon fill="#6ECDF5" points="92.362,65.084 422.563,210.591 384.433,294.539 12.025,232.872"/><polygon fill="#64B9E6" points="12.025,232.872 336.762,33.945 384.433,294.539"/><polygon fill="#2D91D2" points="12.025,232.872 204.945,114.694 364.388,184.956 384.433,294.539"/><polygon fill="#375AA5" points="12.025,232.872 336.762,33.945 127.838,252.05"/><polygon fill="#1E3791" points="12.025,232.872 204.944,114.694 243.243,131.573 127.838,252.05"/></g></svg>