<svg width="34" height="29" viewBox="0 0 34 29" fill="none" xmlns="http://www.w3.org/2000/svg">
<path d="M28.0506 5.91941C26.7928 7.16471 26.4698 8.95588 27.0647 10.4912L22.1013 15.4724V11.9412C22.1013 11.0029 21.3364 10.2353 20.4015 10.2353H18.6507C18.7017 9.9453 18.7017 9.67236 18.7017 9.38236C18.7017 4.19647 14.5201 4.12606e-06 9.35266 4.12606e-06C7.42709 -0.00180819 5.54798 0.593448 3.97239 1.70435C2.3968 2.81524 1.20168 4.38753 0.550503 6.20612C-0.100671 8.02471 -0.17609 10.0008 0.334562 11.864C0.845214 13.7273 1.917 15.3867 3.4033 16.6153V27.2941C3.4033 28.2324 4.16822 29 5.10311 29H20.4015C21.3364 29 22.1013 28.2324 22.1013 27.2941V20.2829L29.4615 12.8965C30.9913 13.4935 32.7761 13.1865 34 11.9412L28.0506 5.91941ZM3.48829 10.2353C3.45429 9.9453 3.4033 9.67236 3.4033 9.38236C3.4033 6.09 6.07201 3.41177 9.35266 3.41177C12.6333 3.41177 15.302 6.09 15.302 9.38236C15.302 9.67236 15.251 9.9453 15.217 10.2353M18.7017 25.5882H6.80293V13.6471H18.7017V25.5882Z" fill="#FEFEFE"/>
</svg>
