<?xml version="1.0" encoding="UTF-8" standalone="no"?><!DOCTYPE svg PUBLIC "-//W3C//DTD SVG 1.1//EN" "http://www.w3.org/Graphics/SVG/1.1/DTD/svg11.dtd"><svg width="100%" height="100%" viewBox="0 0 584 239" version="1.1" xmlns="http://www.w3.org/2000/svg" xmlns:xlink="http://www.w3.org/1999/xlink" xml:space="preserve" xmlns:serif="http://www.serif.com/" style="fill-rule:evenodd;clip-rule:evenodd;stroke-linejoin:round;stroke-miterlimit:2;"><g transform="matrix(1,0,0,1,-2625.4,-118.11)"><g id="logo" transform="matrix(1,0,0,1,1739.49,-528.088)"><g transform="matrix(1,0,0,0.181347,-2.27374e-13,529.216)"><g transform="matrix(212.5,0,0,1171.79,884.668,1466.7)"><path d="M1.413,-0.701L1.198,-0.124C1.185,-0.09 1.171,-0.063 1.156,-0.042C1.141,-0.022 1.12,-0.006 1.094,0.005C1.068,0.016 1.035,0.021 0.994,0.021C0.889,0.021 0.822,-0.029 0.793,-0.128L0.706,-0.428L0.615,-0.133C0.605,-0.102 0.592,-0.075 0.574,-0.052C0.557,-0.029 0.536,-0.012 0.51,0.001C0.484,0.014 0.454,0.021 0.419,0.021C0.395,0.021 0
 .37,0.015 0.344,0.003C0.318,-0.01 0.293,-0.028 0.271,-0.052C0.249,-0.075 0.231,-0.103 0.219,-0.135L0.006,-0.701L0.23,-0.701L0.399,-0.252C0.404,-0.24 0.408,-0.232 0.412,-0.229C0.415,-0.226 0.419,-0.224 0.425,-0.224C0.434,-0.224 0.441,-0.226 0.445,-0.231C0.449,-0.235 0.454,-0.244 0.458,-0.259L0.586,-0.701L0.836,-0.701L0.953,-0.259C0.957,-0.243 0.962,-0.233 0.967,-0.228C0.972,-0.224 0.979,-0.221 0.986,-0.221C1.002,-0.221 1.014,-0.234 1.022,-0.259L1.184,-0.701L1.413,-0.701Z" style="fill:rgb(49,183,238);fill-rule:nonzero;"/></g><g transform="matrix(1,0,0,5.51429,-1693.96,-6.21924)"><path d="M2896.33,164.146L2939.08,164.146L2939.08,267.109L2896.33,267.109L2896.33,164.146ZM2939.08,153.464L2896.33,153.464L2896.33,118.525L2939.08,118.525L2939.08,153.464Z" style="fill:rgb(250,149,40);fill-rule:nonzero;"/></g><g transform="matrix(212.5,0,0,1171.79,1257.25,1466.7)"><path d="M1,-0.206C1,-0.184 0.996,-0.161 0.987,-0.137C0.978,-0.114 0.965,-0.092 0.946,-0.071C0.927,-0.049 0.903,-0.032 0.874,-0.019
 C0.845,-0.006 0.811,0 0.773,0L0.608,0L0.608,0.097L0.436,0.097L0.436,0L0.301,0C0.269,0 0.237,-0.006 0.206,-0.018C0.175,-0.029 0.147,-0.045 0.122,-0.065C0.098,-0.085 0.078,-0.107 0.065,-0.131C0.051,-0.155 0.044,-0.179 0.044,-0.202L0.044,-0.502C0.044,-0.519 0.049,-0.539 0.059,-0.562C0.07,-0.585 0.083,-0.607 0.101,-0.628C0.118,-0.649 0.139,-0.666 0.162,-0.68C0.185,-0.693 0.209,-0.7 0.234,-0.7L0.809,-0.7C0.825,-0.7 0.845,-0.695 0.867,-0.684C0.89,-0.673 0.911,-0.658 0.931,-0.64C0.951,-0.622 0.967,-0.6 0.98,-0.576C0.993,-0.552 1,-0.527 1,-0.502L1,-0.206ZM0.799,-0.281L0.799,-0.442C0.799,-0.457 0.794,-0.471 0.783,-0.485C0.772,-0.499 0.759,-0.511 0.743,-0.519C0.728,-0.528 0.714,-0.532 0.701,-0.532L0.35,-0.532C0.336,-0.532 0.322,-0.528 0.305,-0.519C0.289,-0.51 0.275,-0.498 0.264,-0.483C0.252,-0.468 0.246,-0.452 0.246,-0.435L0.245,-0.304C0.245,-0.274 0.253,-0.246 0.269,-0.223C0.284,-0.199 0.304,-0.187 0.326,-0.187L0.432,-0.187L0.432,-0.284L0.611,-0.284L0.611,-0.184L0.702,-0.185C0.718,-0.185 0.7
 34,-0.189 0.749,-0.198C0.764,-0.207 0.776,-0.219 0.785,-0.233C0.794,-0.248 0.799,-0.264 0.799,-0.281Z" style="fill:rgb(164,200,74);fill-rule:nonzero;"/></g></g><g transform="matrix(0.368932,0,0,0.235294,716.099,570.283)"><g transform="matrix(225.877,0,0,354.167,545.966,1333.14)"><path d="M0.438,-0.545C0.433,-0.515 0.421,-0.463 0.402,-0.388L0.3,0L0.22,0L0.02,-0.653L0.099,-0.653L0.211,-0.27C0.229,-0.208 0.244,-0.153 0.257,-0.104L0.259,-0.104C0.266,-0.134 0.273,-0.164 0.28,-0.192C0.288,-0.221 0.294,-0.247 0.3,-0.269L0.399,-0.653L0.479,-0.653L0.578,-0.269C0.602,-0.177 0.615,-0.122 0.619,-0.104L0.621,-0.104C0.632,-0.15 0.647,-0.205 0.666,-0.27L0.779,-0.653L0.858,-0.653L0.658,0L0.577,0L0.477,-0.388C0.458,-0.46 0.446,-0.513 0.44,-0.545L0.438,-0.545Z" style="fill:rgb(135,135,135);fill-rule:nonzero;"/></g><g transform="matrix(225.877,0,0,354.167,744.701,1333.14)"><path d="M0.078,0L0.078,-0.464L0.154,-0.464L0.154,0L0.078,0ZM0.076,-0.572L0.076,-0.656L0.152,-0.656L0.152,-0.572L0.076,-0.572Z" st
 yle="fill:rgb(135,135,135);fill-rule:nonzero;"/></g><g transform="matrix(225.877,0,0,354.167,796.638,1333.14)"><path d="M0.328,-0.402L0.322,-0.402C0.304,-0.402 0.286,-0.401 0.269,-0.397C0.252,-0.394 0.236,-0.389 0.22,-0.383C0.205,-0.376 0.192,-0.368 0.179,-0.358C0.167,-0.348 0.157,-0.337 0.149,-0.323L0.149,0L0.073,0L0.073,-0.464L0.132,-0.464L0.146,-0.39L0.148,-0.39C0.155,-0.402 0.165,-0.413 0.176,-0.424C0.186,-0.434 0.199,-0.443 0.212,-0.451C0.226,-0.459 0.241,-0.465 0.257,-0.469C0.274,-0.474 0.291,-0.476 0.309,-0.476C0.312,-0.476 0.315,-0.476 0.319,-0.476C0.322,-0.476 0.325,-0.475 0.328,-0.475L0.328,-0.402Z" style="fill:rgb(135,135,135);fill-rule:nonzero;"/></g><g transform="matrix(225.877,0,0,354.167,916.614,1333.14)"><path d="M0.078,0L0.078,-0.464L0.154,-0.464L0.154,0L0.078,0ZM0.076,-0.572L0.076,-0.656L0.152,-0.656L0.152,-0.572L0.076,-0.572Z" style="fill:rgb(135,135,135);fill-rule:nonzero;"/></g><g transform="matrix(225.877,0,0,354.167,968.551,1333.14)"><path d="M0.452,0L0.376,0L
 0.376,-0.298C0.376,-0.319 0.374,-0.336 0.37,-0.35C0.365,-0.364 0.359,-0.376 0.351,-0.385C0.343,-0.394 0.333,-0.401 0.321,-0.405C0.309,-0.409 0.297,-0.411 0.282,-0.411C0.255,-0.411 0.231,-0.404 0.208,-0.389C0.186,-0.375 0.167,-0.355 0.149,-0.33L0.149,0L0.073,0L0.073,-0.464L0.132,-0.464L0.146,-0.399L0.148,-0.399C0.156,-0.41 0.166,-0.42 0.176,-0.429C0.185,-0.439 0.197,-0.447 0.209,-0.454C0.221,-0.461 0.234,-0.466 0.249,-0.47C0.264,-0.474 0.28,-0.476 0.297,-0.476C0.331,-0.476 0.36,-0.468 0.383,-0.451C0.406,-0.435 0.423,-0.412 0.436,-0.383L0.438,-0.383C0.458,-0.412 0.482,-0.435 0.508,-0.451C0.534,-0.468 0.565,-0.476 0.6,-0.476C0.617,-0.476 0.634,-0.474 0.652,-0.469C0.67,-0.465 0.687,-0.456 0.703,-0.444C0.718,-0.432 0.731,-0.415 0.741,-0.394C0.751,-0.372 0.756,-0.344 0.756,-0.311L0.756,0L0.68,0L0.68,-0.298C0.68,-0.319 0.678,-0.336 0.674,-0.35C0.669,-0.364 0.663,-0.376 0.655,-0.385C0.646,-0.394 0.636,-0.401 0.625,-0.405C0.613,-0.409 0.6,-0.411 0.586,-0.411C0.559,-0.411 0.534,-0.404 0.512,-
 0.389C0.49,-0.375 0.47,-0.355 0.452,-0.33L0.452,0Z" style="fill:rgb(135,135,135);fill-rule:nonzero;"/></g><g transform="matrix(225.877,0,0,354.167,1191.21,1333.14)"><path d="M0.588,-0.326C0.588,-0.37 0.582,-0.409 0.571,-0.442C0.559,-0.476 0.544,-0.504 0.524,-0.526C0.504,-0.549 0.48,-0.566 0.453,-0.577C0.426,-0.589 0.396,-0.595 0.365,-0.595C0.334,-0.595 0.305,-0.589 0.278,-0.577C0.25,-0.566 0.227,-0.549 0.207,-0.526C0.187,-0.504 0.171,-0.476 0.16,-0.442C0.148,-0.409 0.143,-0.37 0.143,-0.326C0.143,-0.282 0.148,-0.244 0.16,-0.21C0.171,-0.177 0.187,-0.149 0.207,-0.126C0.227,-0.104 0.251,-0.087 0.278,-0.076C0.305,-0.064 0.335,-0.059 0.366,-0.059C0.397,-0.059 0.427,-0.064 0.453,-0.076C0.48,-0.087 0.504,-0.104 0.524,-0.126C0.544,-0.149 0.559,-0.177 0.571,-0.21C0.582,-0.244 0.588,-0.282 0.588,-0.326ZM0.672,-0.333C0.672,-0.302 0.669,-0.272 0.662,-0.244C0.656,-0.216 0.646,-0.19 0.634,-0.167C0.622,-0.143 0.608,-0.122 0.591,-0.104C0.574,-0.085 0.556,-0.069 0.536,-0.057L0.536,-0.055C0.563,-0.059
  0.588,-0.062 0.612,-0.064C0.636,-0.067 0.661,-0.068 0.686,-0.067L0.686,0.005C0.67,0.004 0.654,0.003 0.636,0.002C0.618,0.001 0.597,0 0.574,0C0.556,0 0.538,0 0.521,0.001C0.503,0.002 0.485,0.004 0.467,0.005C0.45,0.006 0.432,0.007 0.416,0.008C0.399,0.009 0.382,0.01 0.367,0.01C0.319,0.01 0.275,0.002 0.237,-0.015C0.199,-0.031 0.167,-0.054 0.14,-0.083C0.114,-0.113 0.094,-0.148 0.08,-0.189C0.066,-0.231 0.059,-0.276 0.059,-0.326C0.059,-0.376 0.066,-0.422 0.08,-0.463C0.095,-0.505 0.115,-0.54 0.142,-0.57C0.168,-0.6 0.201,-0.624 0.238,-0.64C0.276,-0.657 0.318,-0.666 0.365,-0.666C0.413,-0.666 0.456,-0.657 0.494,-0.64C0.532,-0.624 0.564,-0.6 0.59,-0.571C0.617,-0.541 0.637,-0.506 0.651,-0.465C0.665,-0.425 0.672,-0.381 0.672,-0.333Z" style="fill:rgb(135,135,135);fill-rule:nonzero;"/></g><g transform="matrix(225.877,0,0,354.167,1357.74,1333.14)"><path d="M0.257,0.012C0.233,0.012 0.212,0.01 0.192,0.004C0.173,-0.001 0.156,-0.008 0.142,-0.018C0.127,-0.027 0.115,-0.038 0.105,-0.052C0.095,-0.065 0.087,-
 0.079 0.081,-0.095C0.076,-0.106 0.073,-0.119 0.071,-0.133C0.069,-0.147 0.068,-0.163 0.068,-0.179L0.068,-0.464L0.144,-0.464L0.144,-0.18C0.144,-0.154 0.147,-0.132 0.154,-0.115C0.162,-0.096 0.175,-0.08 0.192,-0.069C0.21,-0.058 0.232,-0.052 0.259,-0.052C0.287,-0.052 0.31,-0.058 0.328,-0.071C0.345,-0.083 0.358,-0.1 0.365,-0.121C0.371,-0.137 0.374,-0.156 0.374,-0.18L0.374,-0.464L0.449,-0.464L0.449,-0.179C0.449,-0.163 0.448,-0.149 0.447,-0.135C0.445,-0.122 0.442,-0.109 0.438,-0.098C0.432,-0.082 0.424,-0.067 0.414,-0.053C0.404,-0.04 0.391,-0.028 0.376,-0.019C0.361,-0.009 0.344,-0.001 0.324,0.004C0.304,0.01 0.282,0.012 0.257,0.012Z" style="fill:rgb(135,135,135);fill-rule:nonzero;"/></g><g transform="matrix(225.877,0,0,354.167,1474.2,1333.14)"><path d="M0.345,-0.051L0.343,-0.051C0.337,-0.043 0.329,-0.036 0.319,-0.028C0.31,-0.02 0.299,-0.014 0.287,-0.008C0.274,-0.002 0.261,0.003 0.246,0.007C0.231,0.01 0.216,0.012 0.199,0.012C0.177,0.012 0.156,0.009 0.137,0.002C0.119,-0.004 0.103,-0.014 0.089,-
 0.027C0.076,-0.04 0.065,-0.056 0.058,-0.074C0.05,-0.093 0.046,-0.114 0.046,-0.137C0.046,-0.16 0.051,-0.181 0.059,-0.199C0.067,-0.217 0.079,-0.233 0.094,-0.246C0.109,-0.258 0.127,-0.268 0.148,-0.275C0.169,-0.282 0.192,-0.285 0.217,-0.285C0.241,-0.285 0.264,-0.283 0.284,-0.279C0.305,-0.275 0.323,-0.27 0.339,-0.264L0.341,-0.264L0.341,-0.296C0.341,-0.309 0.34,-0.32 0.338,-0.33C0.337,-0.34 0.334,-0.348 0.33,-0.356C0.322,-0.372 0.308,-0.385 0.29,-0.395C0.271,-0.405 0.246,-0.41 0.214,-0.41C0.191,-0.41 0.169,-0.408 0.148,-0.404C0.128,-0.399 0.107,-0.393 0.086,-0.385L0.086,-0.449C0.094,-0.453 0.103,-0.456 0.114,-0.46C0.125,-0.463 0.136,-0.466 0.147,-0.469C0.159,-0.471 0.172,-0.473 0.185,-0.474C0.198,-0.475 0.211,-0.476 0.224,-0.476C0.271,-0.476 0.309,-0.468 0.339,-0.451C0.368,-0.435 0.39,-0.413 0.403,-0.385C0.408,-0.375 0.411,-0.363 0.413,-0.351C0.415,-0.338 0.417,-0.325 0.417,-0.31L0.417,0L0.353,0L0.345,-0.051ZM0.341,-0.204C0.327,-0.208 0.31,-0.211 0.291,-0.215C0.272,-0.218 0.251,-0.22 0.22
 8,-0.221C0.196,-0.221 0.171,-0.214 0.153,-0.2C0.135,-0.187 0.125,-0.166 0.125,-0.137C0.125,-0.123 0.128,-0.11 0.132,-0.1C0.137,-0.089 0.143,-0.08 0.151,-0.073C0.159,-0.066 0.168,-0.061 0.179,-0.057C0.19,-0.054 0.202,-0.052 0.214,-0.052C0.23,-0.052 0.245,-0.055 0.259,-0.059C0.273,-0.064 0.285,-0.07 0.296,-0.076C0.307,-0.083 0.316,-0.089 0.324,-0.096C0.332,-0.102 0.337,-0.107 0.341,-0.111L0.341,-0.204Z" style="fill:rgb(135,135,135);fill-rule:nonzero;"/></g><g transform="matrix(225.877,0,0,354.167,1584.37,1333.14)"><path d="M0.328,-0.402L0.322,-0.402C0.304,-0.402 0.286,-0.401 0.269,-0.397C0.252,-0.394 0.236,-0.389 0.22,-0.383C0.205,-0.376 0.192,-0.368 0.179,-0.358C0.167,-0.348 0.157,-0.337 0.149,-0.323L0.149,0L0.073,0L0.073,-0.464L0.132,-0.464L0.146,-0.39L0.148,-0.39C0.155,-0.402 0.165,-0.413 0.176,-0.424C0.186,-0.434 0.199,-0.443 0.212,-0.451C0.226,-0.459 0.241,-0.465 0.257,-0.469C0.274,-0.474 0.291,-0.476 0.309,-0.476C0.312,-0.476 0.315,-0.476 0.319,-0.476C0.322,-0.476 0.325,-0.475 0
 .328,-0.475L0.328,-0.402Z" style="fill:rgb(135,135,135);fill-rule:nonzero;"/></g><g transform="matrix(225.877,0,0,354.167,1659.57,1333.14)"><path d="M0.318,0.001C0.311,0.004 0.301,0.006 0.288,0.008C0.275,0.011 0.259,0.012 0.24,0.012C0.216,0.012 0.195,0.009 0.177,0.003C0.159,-0.003 0.144,-0.011 0.132,-0.023C0.12,-0.034 0.111,-0.048 0.105,-0.063C0.1,-0.079 0.097,-0.097 0.097,-0.117L0.097,-0.399L0.007,-0.399L0.007,-0.464L0.097,-0.464L0.097,-0.591L0.172,-0.591L0.172,-0.464L0.311,-0.464L0.311,-0.399L0.172,-0.399L0.172,-0.128C0.172,-0.118 0.174,-0.108 0.177,-0.099C0.18,-0.09 0.185,-0.082 0.192,-0.075C0.198,-0.068 0.207,-0.063 0.217,-0.059C0.228,-0.056 0.24,-0.054 0.255,-0.054C0.265,-0.054 0.276,-0.055 0.287,-0.056C0.298,-0.058 0.308,-0.06 0.318,-0.063L0.318,0.001Z" style="fill:rgb(135,135,135);fill-rule:nonzero;"/></g><g transform="matrix(225.877,0,0,354.167,1737.54,1333.14)"><path d="M0.078,0L0.078,-0.464L0.154,-0.464L0.154,0L0.078,0ZM0.076,-0.572L0.076,-0.656L0.152,-0.656L0.152,-0.572L0
 .076,-0.572Z" style="fill:rgb(135,135,135);fill-rule:nonzero;"/></g><g transform="matrix(225.877,0,0,354.167,1789.48,1333.14)"><path d="M0.254,-0.411C0.236,-0.411 0.22,-0.408 0.205,-0.401C0.19,-0.394 0.177,-0.385 0.166,-0.373C0.154,-0.361 0.145,-0.348 0.138,-0.332C0.131,-0.316 0.127,-0.299 0.125,-0.281L0.363,-0.281C0.363,-0.299 0.36,-0.316 0.356,-0.332C0.351,-0.348 0.344,-0.362 0.335,-0.374C0.325,-0.385 0.314,-0.394 0.3,-0.401C0.287,-0.408 0.271,-0.411 0.254,-0.411ZM0.293,-0.054C0.319,-0.054 0.341,-0.056 0.362,-0.06C0.383,-0.064 0.403,-0.07 0.424,-0.077L0.424,-0.014C0.407,-0.006 0.387,0 0.362,0.005C0.338,0.01 0.312,0.012 0.284,0.012C0.25,0.012 0.219,0.008 0.19,0C0.161,-0.009 0.136,-0.023 0.115,-0.042C0.093,-0.06 0.077,-0.085 0.064,-0.115C0.052,-0.146 0.046,-0.183 0.046,-0.226C0.046,-0.268 0.052,-0.305 0.064,-0.336C0.076,-0.367 0.091,-0.393 0.111,-0.414C0.13,-0.434 0.153,-0.45 0.178,-0.46C0.203,-0.471 0.23,-0.476 0.257,-0.476C0.283,-0.476 0.308,-0.472 0.33,-0.463C0.353,-0.455 0.372,-
 0.441 0.389,-0.422C0.405,-0.404 0.418,-0.38 0.428,-0.351C0.438,-0.321 0.442,-0.286 0.442,-0.245L0.442,-0.235C0.442,-0.232 0.442,-0.226 0.442,-0.216L0.122,-0.216C0.122,-0.187 0.126,-0.162 0.135,-0.141C0.144,-0.12 0.156,-0.103 0.172,-0.091C0.187,-0.078 0.205,-0.068 0.226,-0.063C0.247,-0.057 0.269,-0.054 0.293,-0.054Z" style="fill:rgb(135,135,135);fill-rule:nonzero;"/></g><g transform="matrix(225.877,0,0,354.167,1901.41,1333.14)"><path d="M0.328,-0.402L0.322,-0.402C0.304,-0.402 0.286,-0.401 0.269,-0.397C0.252,-0.394 0.236,-0.389 0.22,-0.383C0.205,-0.376 0.192,-0.368 0.179,-0.358C0.167,-0.348 0.157,-0.337 0.149,-0.323L0.149,0L0.073,0L0.073,-0.464L0.132,-0.464L0.146,-0.39L0.148,-0.39C0.155,-0.402 0.165,-0.413 0.176,-0.424C0.186,-0.434 0.199,-0.443 0.212,-0.451C0.226,-0.459 0.241,-0.465 0.257,-0.469C0.274,-0.474 0.291,-0.476 0.309,-0.476C0.312,-0.476 0.315,-0.476 0.319,-0.476C0.322,-0.476 0.325,-0.475 0.328,-0.475L0.328,-0.402Z" style="fill:rgb(135,135,135);fill-rule:nonzero;"/></g></g></
 g></g></svg>