<?xml version="1.0" encoding="UTF-8"?>
<svg width="55px" height="55px" viewBox="0 0 55 55" version="1.1" xmlns="http://www.w3.org/2000/svg" xmlns:xlink="http://www.w3.org/1999/xlink">
    <!-- Generator: Sketch 60.1 (88133) - https://sketch.com -->
    <title>icon-zoom</title>
    <desc>Created with Sketch.</desc>
    <g id="icon-zoom" stroke="none" stroke-width="1" fill="none" fill-rule="evenodd">
        <g>
            <g>
                <rect id="Rectangle-Copy-7" fill-opacity="0" fill="#D8D8D8" x="0" y="0" width="55" height="55"></rect>
                <g id="Group-4" transform="translate(14.000000, 7.000000)">
                    <path d="M22.3224975,24.6131374 C24.0072233,20.2888311 22.5452382,15.2993318 18.5582023,12.7377507 C13.9635415,9.78578419 7.75545165,11.1760064 4.69204565,15.842899 C1.62863965,20.5097915 2.869967,26.6860972 7.46462789,29.6380637 C11.4207551,32.1797867 16.5730263,31.5023519 19.8841594,28.2859195" id="Path-Copy-2" stroke="#6FE5A4" stroke-width="2" fill="#E3FFEF" stroke-linecap="round"></path>
                    <circle id="Oval-Copy-6" stroke="#2C303B" stroke-width="2" cx="2" cy="10" r="1"></circle>
                    <circle id="Oval-Copy-7" stroke="#2C303B" stroke-width="2" fill="#FFFFFF" transform="translate(3.000000, 38.000000) scale(1, -1) translate(-3.000000, -38.000000) " cx="3" cy="38" r="3"></circle>
                    <circle id="Oval-Copy-5" stroke="#2C303B" stroke-width="2" fill="#FFFFFF" transform="translate(8.000000, 2.000000) scale(-1, -1) translate(-8.000000, -2.000000) " cx="8" cy="2" r="2"></circle>
                    <rect id="Rectangle" fill="#2C303B" transform="translate(25.000000, 33.500000) rotate(-45.000000) translate(-25.000000, -33.500000) " x="24" y="28" width="2" height="11" rx="1"></rect>
                </g>
            </g>
        </g>
    </g>
</svg>