<?xml version="1.0" encoding="UTF-8"?>
<svg width="55px" height="55px" viewBox="0 0 55 55" version="1.1" xmlns="http://www.w3.org/2000/svg" xmlns:xlink="http://www.w3.org/1999/xlink">
    <!-- Generator: Sketch 60.1 (88133) - https://sketch.com -->
    <title>icon-water</title>
    <desc>Created with Sketch.</desc>
    <g id="icon-water" stroke="none" stroke-width="1" fill="none" fill-rule="evenodd">
        <g>
            <rect id="Rectangle" fill-opacity="0" fill="#D8D8D8" x="0" y="0" width="55" height="55"></rect>
            <g id="Group-6-Copy" transform="translate(0.000000, 6.000000)">
                <circle id="Oval-Copy-9" stroke="#2C303B" stroke-width="2" cx="39.9749669" cy="9" r="1"></circle>
                <circle id="Oval-Copy-10" stroke="#2C303B" stroke-width="2" fill="#FFFFFF" transform="translate(47.974967, 4.000000) scale(1, -1) translate(-47.974967, -4.000000) " cx="47.9749669" cy="4" r="3"></circle>
                <circle id="Oval-Copy-8" stroke="#2C303B" stroke-width="2" fill="#FFFFFF" transform="translate(44.974967, 22.000000) scale(-1, -1) translate(-44.974967, -22.000000) " cx="44.9749669" cy="22" r="2"></circle>
                <path d="M28.87954,23.7127375 L34.5668417,23.438318 C34.9655648,23.4190791 35.3043899,23.7267118 35.3236288,24.1254348 C35.3372702,24.4081508 35.1846364,24.6728134 34.9331007,24.8025988 L33.7831822,25.395925 C32.6931583,25.9583472 32.0553004,27.1276776 32.1725097,28.3486333 L33.7383676,44.6599889 C33.8313614,45.6286941 33.121457,46.4893712 32.1527518,46.582365 C31.8325427,46.6131045 31.5100282,46.5556011 31.2201743,46.4160894 L30.1561401,45.9039513 C29.0898252,45.3907154 28.4248594,44.2985829 28.4584345,43.1156579 L28.9211611,26.812764 C28.9378016,26.2264798 28.7822196,25.6481773 28.473658,25.149383 L28.2845603,24.843704 C28.0690725,24.4953649 28.1767697,24.0382928 28.5251089,23.8228049 C28.6320152,23.756671 28.7539774,23.7187961 28.87954,23.7127375 Z" id="Rectangle" stroke="#2C303B" stroke-width="2" fill="#FFFFFF" transform="translate(32.755102, 35.525004) rotate(-636.000000) translate(-32.755102, -35.525004) "></path>
                <path d="M14.7352801,26.6450596 C21.2362165,26.6250802 26.5223278,21.3575146 26.5423054,14.8794553 C26.5462195,13.5601217 26.3314979,12.2923294 25.9320474,11.109975 C24.3701566,6.48685163 19.9839701,3.16997603 14.8070265,3.18559757 C8.30609008,3.20557691 3.01997884,8.47314252 3,14.9512018 C2.98508952,19.8722451 6.01338452,24.0762188 10.3197532,25.8041669 C11.6822863,26.3508889 13.1727656,26.6497392 14.7352801,26.6450596 Z" id="Oval" fill="#E3FFEF" transform="translate(14.771153, 14.915329) rotate(-344.000000) translate(-14.771153, -14.915329) "></path>
                <path d="M25.6504531,9.75770828 C23.7797766,5.78400789 19.7259303,3.0423651 15.0181613,3.05642201 C8.51722481,3.07656508 3.23111357,8.34413069 3.2109714,14.8221899 C3.19748154,19.3221509 5.72855099,23.222508 9.45460891,25.1783003" id="Path" stroke="#6FE5A4" stroke-width="2" fill="#E3FFEF" stroke-linecap="round" transform="translate(14.430712, 14.117361) rotate(-343.000000) translate(-14.430712, -14.117361) "></path>
                <g id="Group-2" transform="translate(19.268311, 26.120961) rotate(-14.000000) translate(-19.268311, -26.120961) translate(3.768311, 11.120961)">
                    <path d="M14.1870866,11.1999058 L25.5186917,6.34927389 C27.0418617,5.69726236 28.8051948,6.40347586 29.4572063,7.92664589 C29.4764292,7.97155278 29.4945525,8.01692246 29.5115599,8.06271437 L30.9874039,12.0363863 L30.9874039,12.0363863" id="Path" stroke="#2C303B" stroke-width="2" fill="#FFFFFF" transform="translate(22.587245, 8.572984) rotate(-315.000000) translate(-22.587245, -8.572984) "></path>
                    <path d="M8.27137962,6.89832777 L20.2261367,7.05358435 C21.8525063,7.07470604 23.1658043,8.3880041 23.186926,10.0143736 L23.3591866,23.2784425 C23.3807024,24.935157 22.0551119,26.2956315 20.3983974,26.3171473 C20.3724266,26.3174846 20.3464526,26.3174846 20.3204819,26.3171473 L8.36572475,26.1618907 C6.73935521,26.140769 5.42605715,24.827471 5.40493546,23.2011014 L5.23267483,9.93703256 C5.21115906,8.28031802 6.53674957,6.91984354 8.19346411,6.89832777 C8.21943486,6.89799049 8.24540888,6.89799049 8.27137962,6.89832777 Z" id="Rectangle" stroke="#2C303B" stroke-width="2" fill="#FFFFFF" transform="translate(14.295931, 16.607738) rotate(-315.000000) translate(-14.295931, -16.607738) "></path>
                    <polygon id="Rectangle" fill="#2C303B" transform="translate(17.335554, 13.742994) rotate(-315.000000) translate(-17.335554, -13.742994) " points="8.36288157 12.8472452 26.2879828 13.0800387 26.3082257 14.6387431 8.38312448 14.4059496"></polygon>
                    <polygon id="Rectangle-Copy" fill="#2C303B" transform="translate(11.352342, 19.883658) rotate(-315.000000) translate(-11.352342, -19.883658) " points="2.37967034 18.9879093 20.3047716 19.2207028 20.3250145 20.7794073 2.39991326 20.5466138"></polygon>
                </g>
            </g>
        </g>
    </g>
</svg>