<svg class="logo-berlin" width="90px" height="30px" viewBox="0 0 240 59" version="1.1" xmlns="http://www.w3.org/2000/svg" xmlns:xlink="http://www.w3.org/1999/xlink">
    <g id="Page-1" stroke="none" stroke-width="1" fill="none" fill-rule="evenodd">
        <g id="berlin-logo" fill-rule="nonzero">
            <path d="M202.052405,12.9335849 C200.745456,12.9191127 199.735372,13.8701947 199.697521,15.1511683 C199.658929,16.450696 200.695731,17.501599 202.014555,17.5012279 C203.291446,17.5008568 204.313776,16.501163 204.332701,15.2357749 C204.350513,13.9818903 203.326328,12.9473149 202.052405,12.9335849 Z M206.742134,34.899016 C205.97214,34.771364 205.276733,34.5999243 204.574275,34.5561367 C203.94789,34.516802 203.804652,34.2321824 203.819124,33.6714782 C203.84844,32.5593467 203.826917,31.446102 203.826917,30.3332284 C203.826546,27.1493486 203.827659,23.9654688 203.825062,20.7815889 C203.824691,20.3552162 203.909668,19.8483188 203.228362,19.8776342 C201.531035,19.9507373 199.833708,20.0327463 198.136752,20.1143843 C197.416854,20.1488948 197.541166,20.6932715 197.549701,21.136714 C197.558236,21.569024 197.397187,22.0889093 198.14269,22.1523642 C198.897098,22.2165613 199.643344,22.3839191 200.438571,22.5137977 L200.438571,32.146704 C200.438571,34.3705959 200.445251,34.4117859 198.274053,34.7576339 C197.201998,34.9283315 197.625773,35.6771741 197.554525,36.2419602 C197.470661,36.9039697 197.937853,36.8891265 198.393541,36.8883843 C200.959199,36.8843024 203.524486,36.8880132 206.090144,36.8813337 C206.296836,36.8805916 206.503157,36.8227029 206.742134,36.7867079 L206.742134,34.899016 Z M180.420947,22.1846483 C180.420947,21.6985315 180.385323,21.209446 180.429111,20.727411 C180.490711,20.058722 180.198669,19.8624199 179.569686,19.8950751 C178.090184,19.97226 176.608826,20.0394258 175.127469,20.0475896 C174.410168,20.0516715 174.265446,20.3622667 174.254314,21.0090619 C174.241697,21.7460299 174.371947,22.210624 175.237309,22.1668364 C175.538627,22.151251 175.846254,22.3004258 176.15017,22.2974571 C176.912742,22.2900355 177.12129,22.6447895 177.114611,23.3836129 C177.080842,27.0588047 177.099396,30.7347387 177.099396,34.4103016 C177.099396,36.9499838 177.099025,36.92809 179.649098,36.9017432 C180.325208,36.8950638 180.568638,36.7043278 180.557876,36.0040969 C180.521881,33.6265773 180.468075,31.2442337 180.575317,28.870796 C180.632464,27.5965019 180.888139,26.300314 181.265529,25.0794556 C181.685964,23.7190706 182.733899,22.9832158 184.211917,22.9772785 C184.694694,22.9754231 185.1771,22.9769075 185.758585,22.9769075 C185.758585,22.0017051 185.79829,21.1107383 185.727414,20.2279352 C185.711828,20.0375704 185.303267,19.7373654 185.066889,19.7280883 C183.090137,19.6512745 181.493744,20.317737 180.420947,22.1846483 Z M186.274388,12.1862266 C185.943012,13.9559146 185.957484,13.9778084 187.478919,14.2282885 C187.601005,14.2483269 187.723833,14.3006494 187.84295,14.2928566 C188.775478,14.2301439 188.920199,14.7270221 188.915375,15.5508232 C188.882349,21.1129648 188.897935,26.6758485 188.898306,32.2379901 C188.898306,34.3698537 188.904614,34.4084462 186.832494,34.7542942 C185.752647,34.9342688 186.224663,35.704263 186.14488,36.2575456 C186.048028,36.9321719 186.554183,36.8865289 186.993544,36.8865289 C189.465689,36.8869 191.937835,36.8894975 194.40998,36.882447 C194.671593,36.8817048 194.932834,36.8219607 195.195931,36.7896766 L195.195931,34.912375 C194.579936,34.8025348 194.007357,34.6247867 193.43218,34.6151386 C192.551975,34.6002954 192.402429,34.1650167 192.407624,33.3890851 C192.437682,28.8771044 192.422096,24.3654947 192.422096,19.8535139 C192.422096,17.5357385 192.423952,15.217963 192.419499,12.9005586 C192.418756,12.5083254 192.500765,12.0537505 191.861021,12.0689648 C189.987059,12.1138657 188.112726,12.1483763 186.274388,12.1862266 Z M171.80332,33.6102497 C170.270011,33.8718622 168.796817,34.2191946 167.304327,34.3572369 C163.996506,34.6637503 162.045359,32.8996285 161.782262,29.5751088 C161.71287,28.6926768 161.926984,28.3869056 162.860996,28.4047175 C165.796252,28.461493 168.733733,28.4010067 171.66936,28.4414546 C172.453084,28.452216 172.686494,28.1813264 172.669796,27.4295152 C172.631203,25.7106654 172.491676,23.9970107 171.561004,22.5208482 C171.050767,21.7111482 170.362781,20.8962531 169.557534,20.4093941 C165.793283,18.1328087 160.524296,20.0987988 159.057039,24.2389559 C158.264038,26.477691 158.125625,28.7713461 158.553853,31.0924613 C159.153521,34.339425 160.985179,36.3198873 163.879986,36.9125046 C165.817403,37.3091908 167.748883,37.2731959 169.667004,36.7815128 C172.052316,36.1699704 172.089795,36.1117106 171.80332,33.6102497 Z M211.536508,36.8861578 C212.474973,36.8861578 213.303598,36.8501629 214.127399,36.8972903 C214.836907,36.9381092 215.022077,36.6434705 215.011687,35.9740393 C214.971981,33.4718363 214.956766,30.9685201 214.979402,28.465946 C214.99907,26.2554131 215.469601,24.1944261 217.464536,22.8785708 C218.536219,22.1724026 219.758562,21.8532725 220.975709,22.5008098 C222.085986,23.0919427 222.177643,24.2085272 222.177272,25.3232562 C222.176158,28.3208531 222.178014,31.31845 222.178385,34.3160469 C222.178756,37.091737 222.177643,37.0787491 225.005284,36.896177 C225.528509,36.8624086 225.692898,36.6750124 225.691043,36.1684861 C225.676942,32.2131276 225.738541,28.2562849 225.663212,24.3020397 C225.606065,21.3077826 223.769211,19.6509034 220.7872,19.708421 C218.566648,19.7514665 216.591752,20.368204 215.088871,22.2221276 C214.99573,21.6399006 215.053619,21.0877312 214.970496,20.5578267 C214.931533,20.3125418 214.613145,19.9154845 214.429088,19.9195664 C212.55958,19.9603854 210.692297,20.0698545 208.82353,20.1603984 L208.82353,22.0870539 C209.42728,22.1731448 209.973512,22.3004258 210.522713,22.3174955 C211.282688,22.3416158 211.566565,22.6054548 211.556546,23.4303691 C211.50979,27.5092977 211.536137,31.5885974 211.536508,35.667897 L211.536508,36.8861578 Z M140.676627,15.6628898 L140.676627,16.833281 L140.676627,32.1251813 C140.676627,34.3101096 140.684791,34.3568659 138.554041,34.734998 C137.508704,34.9205388 137.876075,35.6393237 137.814104,36.2174688 C137.735064,36.9503549 138.256433,36.8869 138.726223,36.8865289 C141.506366,36.8857867 144.28688,36.9073095 147.066652,36.8783651 C148.907959,36.8590689 150.692119,36.5121076 152.338237,35.6441478 C154.793312,34.3501864 155.821208,32.2287131 155.721758,29.5354031 C155.630101,27.0402506 154.301629,25.4026677 152.005005,24.5068768 C151.853975,24.4482459 151.716304,24.3551044 151.511838,24.2456353 C151.884775,24.034861 152.185351,23.8793778 152.472197,23.7005165 C154.616677,22.3627675 155.482782,20.4119917 155.138789,17.9394752 C154.813722,15.6027746 153.438864,14.1266121 151.167474,13.5926257 C149.976302,13.3124591 148.732066,13.152523 147.508981,13.1321135 C144.483182,13.0820175 141.455527,13.1421327 138.428986,13.1636554 C138.254207,13.1647687 138.079798,13.2170912 137.874219,13.2504885 C137.849357,13.5332527 137.846388,13.7781665 137.804085,14.0164009 C137.636727,14.9582059 138.061244,15.3708486 138.9793,15.4250265 C139.523306,15.4573106 140.062116,15.5738302 140.676627,15.6628898 Z M100.802429,58.4782809 C100.827662,58.1725097 100.874418,57.8667385 100.874418,57.5609673 C100.878129,48.3191809 100.878871,39.0773945 100.872192,29.8356081 C100.871821,29.5053455 100.794265,29.1750829 100.753075,28.8448203 L100.733407,28.8670852 C101.164233,28.8414805 101.594688,28.7939821 102.025142,28.793611 C110.714759,28.7895291 119.404005,28.7902713 128.093622,28.7902713 L129.42395,28.7902713 C129.42395,26.9333791 129.438793,25.1558984 129.392408,23.379902 C129.389439,23.2548476 128.934864,23.0440732 128.686982,23.0388781 C127.079456,23.0077072 125.471189,23.0225505 123.862921,23.0225505 C120.461588,23.0225505 117.059883,23.0225505 113.658178,23.0225505 L112.572765,23.0225505 L112.572765,0.799959815 C112.868517,0.778066003 113.191729,0.73242297 113.515312,0.73242297 C155.416729,0.729083236 197.317775,0.729083236 239.219193,0.730938644 C239.465591,0.730938644 239.711618,0.759883006 239.958016,0.775097351 L239.958016,47.7169155 C239.683044,47.6909398 239.408444,47.6423281 239.133844,47.6423281 C202.90144,47.6389884 166.669036,47.6423281 130.437374,47.6196921 C129.536759,47.61895 129.370143,47.9336271 129.378307,48.7411006 C129.410962,51.98658 129.382018,55.2324304 129.375709,58.4782809 L123.995026,58.4782809 C123.997253,50.6614477 123.991687,42.8442434 124.015807,35.0274102 C124.018034,34.316789 123.842883,34.0369935 123.089587,34.0692776 C121.794513,34.1249399 120.494985,34.0837498 119.197313,34.0848631 C117.896672,34.0852341 117.896672,34.0859763 117.895188,35.399234 C117.887395,43.0921259 117.879973,50.785389 117.872181,58.4782809 L112.491498,58.4782809 C112.491498,50.7916973 112.491869,43.1047427 112.491498,35.4177881 C112.491498,35.139848 112.538254,34.8470646 112.464038,34.589534 C112.410231,34.4013956 112.195375,34.1219712 112.047684,34.1193737 C110.178918,34.0874606 108.30978,34.098222 106.41244,34.098222 C106.379784,34.3806151 106.3475,34.5294188 106.3475,34.6782225 C106.352696,42.6115753 106.360859,50.5449281 106.368652,58.4782809 L100.802429,58.4782809 Z" id="berlin-logo-shape" fill="#E40323"></path>
            <path d="M77.7954829,58.478429 C77.8247984,58.0810006 77.8797184,57.6835722 77.8800895,57.286515 C77.8849136,49.9628492 77.8838003,42.6395545 77.8838003,35.3162598 L77.8838003,34.0605197 L83.2221798,34.0605197 C83.2392495,34.4427337 83.2719047,34.8327405 83.2719047,35.2231183 C83.2752444,42.5772128 83.2730179,49.9316783 83.277842,57.2857728 C83.2782131,57.6832012 83.332391,58.0810006 83.3617064,58.478429 L77.7954829,58.478429 Z" id="berlin-logo-shape" fill="#E40323"></path>
            <path d="M66.2919544,58.478429 C66.3079109,57.7388634 66.3379685,56.9992978 66.3383396,56.2597323 C66.3416793,49.2514858 66.340195,42.2436104 66.340195,35.2357351 L66.340195,34.0668281 L71.7847037,34.0668281 L71.7847037,35.2409302 C71.7847037,42.5883452 71.7835905,49.9357602 71.7880435,57.2835463 C71.7884145,57.6817168 71.8336865,58.0802584 71.8581779,58.478429 L66.2919544,58.478429 Z" id="berlin-logo-shape" fill="#E40323"></path>
            <path d="M89.4845523,58.478429 C89.4708223,55.7617408 89.4492995,53.0450527 89.4459598,50.3287356 C89.4396514,45.2950142 89.4441044,40.2616638 89.4441044,35.2283134 L89.4441044,34.0631173 L94.8210763,34.0631173 L94.8210763,35.2290556 C94.8210763,42.578326 94.8203341,49.9279675 94.8229317,57.2772379 C94.8233028,57.6776349 94.8503917,58.0780319 94.865235,58.478429 L89.4845523,58.478429 Z" id="berlin-logo-shape" fill="#E40323"></path>
            <path d="M10.245984,40.8203642 C11.1083775,40.91499 11.8100928,40.9791871 12.5080972,41.0708442 C14.5516434,41.3391362 16.260474,40.6259175 17.5369946,39.0940927 C18.4747177,37.9686024 19.3155885,36.7176864 19.9649813,35.4066552 C21.137228,33.039897 21.874567,30.5213664 21.7862496,27.8343648 C21.7031273,25.2976512 20.041053,24.0025765 17.7032391,24.8961409 C16.1806915,25.4779968 14.8132559,26.4877098 13.4257819,27.3823874 C13.1200107,27.5798028 12.9337278,28.081134 12.8446682,28.4770781 C12.270605,31.03383 11.7332789,33.5991169 11.1940974,36.1636616 C10.8779359,37.6672841 10.5803285,39.1746174 10.245984,40.8203642 M14.1742534,20.3830469 C15.6771338,19.3918881 16.9373268,18.3714138 18.3570849,17.6778623 C19.809127,16.9683544 21.3806575,16.3553276 22.9648047,16.0970548 C26.1817108,15.5723455 28.7392049,17.3783995 29.8780543,20.6817676 C31.0180168,23.9884754 30.9853616,27.3801609 30.4057322,30.7573743 C29.7277662,34.7086508 28.2185775,38.3497031 25.7538537,41.5443443 C21.9383931,46.4893773 16.9540255,48.6917464 10.6820048,48.0787196 C7.36824644,47.7547654 4.02851234,47.6957635 0.700652858,47.5150467 C0.520678298,47.5050275 0.342188065,47.4712591 0.0690720322,47.4367485 C2.52080794,34.4841464 4.96475114,21.5742188 7.43875194,8.50583924 C5.87909612,8.50583924 4.46675967,8.47875028 3.05627864,8.51808493 C2.40465941,8.53626793 2.10964957,8.3937726 2.12634824,7.65791786 C2.17199127,5.64962442 2.14749988,3.63984666 2.13785176,1.63043998 C2.13599636,1.15322908 2.1612299,0.798475106 2.80802507,0.801443758 C7.22797761,0.822966489 11.6483012,0.817029184 16.0682538,0.824079734 C16.1840312,0.824450815 16.2998087,0.874175745 16.3499047,0.885308192 C17.2957916,7.55549935 15.3787842,13.8768738 14.1742534,20.3830469" id="berlin-logo-shape" fill="#E40323"></path>
            <path d="M43.2113489,30.3287751 C44.6377864,30.2527033 45.9176468,30.3220956 47.1399894,30.0886853 C49.121565,29.7101821 50.5561663,28.5353379 51.1632558,26.5481961 C51.4526994,25.6004538 51.4534416,24.6104081 50.6571005,23.8752955 C49.9067736,23.1821152 48.9790697,23.1758068 48.0472839,23.4912261 C47.7570981,23.5895627 47.4613461,23.7031137 47.2067841,23.8689872 C44.9506082,25.3395834 43.7828145,27.4937119 43.2113489,30.3287751 M55.3601883,40.1839593 C55.3601883,42.1377038 55.3683521,44.0432076 55.344974,45.9487114 C55.3427475,46.1067922 55.1527537,46.3624674 55.0032078,46.4040285 C51.005175,47.5083673 46.9678076,48.6294047 42.7864605,47.9451303 C37.9501545,47.1532422 35.0482966,44.0940458 33.8129661,39.4280662 C32.0514419,32.7734604 34.6512393,22.5201057 42.1678675,18.2534098 C46.6360607,15.7174384 51.373288,15.0750962 56.2058832,17.2325644 C58.5325646,18.2715928 59.8666028,20.2253373 60.3623678,22.70342 C61.564301,28.7145703 58.3499925,33.4569927 52.2802113,34.7542938 C49.3772402,35.3751133 46.4427272,35.255625 43.5104406,35.2674996 C42.1949565,35.2726948 42.1418918,35.3305835 42.3441313,36.6252871 C42.8057567,39.5779831 44.6262829,41.2322647 47.6220244,41.0845743 C49.9865561,40.9680547 52.3355025,40.5401976 54.6918704,40.2511251 C54.8703606,40.2292313 55.049593,40.2147591 55.3601883,40.1839593" id="berlin-logo-shape" fill="#E40323"></path>
            <path d="M100.752926,28.8448199 C100.388895,28.8125358 100.024864,28.7516784 99.6608334,28.7513073 C88.9681181,28.7464833 78.2750316,28.7472254 67.5819452,28.7475965 L66.3544074,28.7475965 C66.3544074,26.9534171 66.3429039,25.2345673 66.3759301,23.5168308 C66.3788988,23.3728511 66.6642605,23.1810019 66.8549964,23.1090121 C67.0453613,23.0377645 67.2821113,23.0874894 67.4984519,23.0874894 C78.2531378,23.0871183 89.0081949,23.0867472 99.7628808,23.0863761 L100.735486,23.0863761 C100.735486,25.0701782 100.735486,26.9671472 100.734372,28.8656005 C100.733259,28.8670848 100.752926,28.8448199 100.752926,28.8448199" id="berlin-logo-shape" fill="#E40323"></path>
            <path d="M97.9358978,19.7638231 C95.6904833,19.7627099 93.9382361,18.0060097 93.9515951,15.7698722 C93.964954,13.5530309 95.7706369,11.7829719 97.9934155,11.8074633 C100.173891,11.8315836 101.911295,13.5890259 101.920943,15.7810047 C101.930591,18.0264192 100.191332,19.7649364 97.9358978,19.7638231" id="berlin-logo-shape" fill="#E40323"></path>
            <path d="M144.26224,29.905705 C144.261869,28.7946868 144.233296,27.6829264 144.285247,26.5745058 C144.296009,26.3377557 144.617365,25.9061879 144.767653,25.9180625 C146.385198,26.0464567 148.035026,26.0880178 149.599506,26.4694897 C151.197012,26.8591253 151.98519,28.1931635 152.041965,29.8990255 C152.095772,31.5269603 151.342476,32.7463344 149.846647,33.4306088 C148.248027,34.1616395 146.544392,34.123047 144.850404,34.0343585 C144.642599,34.0239682 144.302688,33.5842365 144.288958,33.3293035 C144.227358,32.1908253 144.26224,31.0471519 144.26224,29.905705" id="berlin-logo-shape" fill="#E40323"></path>
            <path d="M144.265468,23.1497569 C144.265468,20.8828196 144.247285,18.6648651 144.298124,16.4487659 C144.302577,16.2572879 144.761976,15.9229434 145.016166,15.9170061 C146.186929,15.8891749 147.362886,15.9114398 148.53068,15.9967886 C150.089594,16.1110817 151.216568,17.0569686 151.554995,18.4321969 C151.914202,19.8935161 151.231041,21.6123659 149.979382,22.395348 C148.729951,23.1768458 146.413289,23.4996868 144.265468,23.1497569" id="berlin-logo-shape" fill="#E40323"></path>
            <path d="M162.087922,25.7875531 C162.314282,23.2857212 163.900656,21.8221755 166.10117,21.9438902 C167.873084,22.0418557 169.240891,23.5028039 169.162964,25.2658124 C169.155171,25.445787 168.871665,25.7626906 168.712471,25.7649171 C166.52346,25.7983144 164.334821,25.7875531 162.087922,25.7875531" id="berlin-logo-shape" fill="#E40323"></path>
        </g>
    </g>
</svg>