<?xml version="1.0" encoding="UTF-8"?>
<svg width="212px" height="58px" viewBox="0 0 212 58" version="1.1" xmlns="http://www.w3.org/2000/svg" xmlns:xlink="http://www.w3.org/1999/xlink">
    <title>logo</title>
    <g id="logo" stroke="none" stroke-width="1" fill="none" fill-rule="evenodd">
        <g id="Group" transform="translate(2.000000, 4.000000)">
            <g id="icon-trees" fill="#E3FFEF" fill-rule="nonzero" stroke="#E3FFEF" stroke-width="4">
                <path d="M26.5,0 C36.7172679,0 45,8.28273213 45,18.5 C45,28.550196 36.9859302,36.7286057 26.999636,36.9933837 L27,49 C27,49.5522847 26.5522847,50 26,50 C25.4477153,50 25,49.5522847 25,49 L24.999211,36.9400049 C23.5032577,36.8199081 22.0575174,36.5218501 20.6831761,36.0670168 C19.6173474,40.3122299 15.9656445,43.5312338 11.4996793,43.9530303 L11.5,49.5 C11.5,50.0522847 11.0522847,50.5 10.5,50.5 C9.9477153,50.5 9.5,50.0522847 9.5,49.5 L9.49931957,43.9529357 C4.16971281,43.4490583 0,38.9614735 0,33.5 C0,28.3510898 3.70609996,24.0677855 8.59623162,23.1721556 C8.20671852,21.679972 8,20.1141269 8,18.5 C8,8.28273213 16.2827321,0 26.5,0 Z" id="Combined-Shape"></path>
            </g>
            <g id="Group-2" transform="translate(1.000000, 1.000000)">
                <circle id="Oval-Copy-2" fill="#E3FFEF" fill-rule="nonzero" cx="9.5" cy="32.5" r="9.5"></circle>
                <path d="M5.08089047,24 C2.04136815,25.7025436 0,28.8590551 0,32.4716409 C0,36.4374063 2.46002204,39.8535633 6,41.4 M13,41.4 C15.0530953,40.5901314 16.7966711,39.1470547 18,37.3058824" id="Shape-Copy" stroke="#37DE8A" stroke-width="2" stroke-linecap="round"></path>
                <path d="M29.2245618,35 C37.1002545,33.2732933 43,26.1839723 43,17.7008749 C43,7.92495163 35.1649831,0 25.5,0 C15.8350169,0 8,7.92495163 8,17.7008749 C8,26.1182091 13.8086274,33.1632931 21.592633,34.9588774" id="Path-Copy" stroke="#37DE8A" stroke-width="2" fill="#E3FFEF" fill-rule="nonzero" stroke-linecap="round"></path>
                <path d="M9.5,30.5 C10.0522847,30.5 10.5,30.9477153 10.5,31.5 L10.5,48.5 C10.5,49.0522847 10.0522847,49.5 9.5,49.5 C8.9477153,49.5 8.5,49.0522847 8.5,48.5 L8.49944786,37.161 L3.95391068,32.643916 C3.59889194,32.2911424 3.59706654,31.7173632 3.94983365,31.3623379 L3.95391075,31.3582608 C4.31186608,31.0025823 4.88981691,31.0025822 5.24776893,31.358264 L8.49944786,34.59 L8.5,31.5 C8.5,30.9477153 8.9477153,30.5 9.5,30.5 Z M25,11 C25.5522847,11 26,11.4477153 26,12 L25.9994479,18.851 L31.3090813,13.5768592 C31.6670334,13.2211775 32.2449842,13.2211774 32.6029396,13.576856 C32.9579584,13.9296296 32.9597838,14.5034088 32.6070167,14.8584341 L32.6029396,14.8625112 L26.1639862,21.260619 C26.1134831,21.3108018 26.0586006,21.3539044 26.0005746,21.3899267 L26,48 C26,48.5522847 25.5522847,49 25,49 C24.4477153,49 24,48.5522847 24,48 L23.9994479,27.001 L17.118387,20.1633665 C16.7633682,19.8105928 16.7615428,19.2368138 17.1143099,18.8817883 L17.118387,18.8777112 C17.4763423,18.5220328 18.0542931,18.5220328 18.4122452,18.8777145 L23.9994479,24.429 L24,12 C24,11.4477153 24.4477153,11 25,11 Z" id="Trunks" fill="#000000" fill-rule="nonzero"></path>
            </g>
            <g id="Gieß-den-Kiez" transform="translate(53.748000, 31.952000)" fill-rule="nonzero">
                <path d="M7.464,1.008 C10.44,1.008 12.6,2.376 13.8,4.824 L13.8,4.824 L11.232,6.336 C10.632,4.896 9.456,3.816 7.464,3.816 C4.992,3.816 3.36,5.376 3.36,8.328 L3.36,8.328 L3.36,11.016 C3.36,13.944 4.992,15.528 7.512,15.528 C9.48,15.528 11.088,14.568 11.088,12.672 L11.088,12.672 L11.088,11.592 L7.8,11.592 L7.8,8.928 L14.136,8.928 L14.136,18.048 L11.4,18.048 L11.4,15.456 L11.304,15.456 C11.016,17.088 9.432,18.336 6.912,18.336 C2.976,18.336 1.13686838e-13,15.336 1.13686838e-13,9.72 C1.13686838e-13,4.104 3,1.008 7.464,1.008 Z M29.208,5.232 C33.12,5.232 34.92,8.112 34.92,11.544 L34.92,11.544 L34.92,12.552 L26.592,12.552 L26.592,12.864 C26.592,14.664 27.624,15.888 29.64,15.888 C31.152,15.888 32.064,15.168 32.832,14.184 L32.832,14.184 L34.488,16.032 C33.456,17.448 31.632,18.336 29.304,18.336 C25.608,18.336 23.4,15.768 23.4,11.76 C23.4,7.8 25.536,5.232 29.208,5.232 Z M44.088,1.42108547e-14 C47.592,1.42108547e-14 49.848,2.016 49.848,5.376 L49.848,5.376 L49.848,7.44 L48.576,7.44 C46.92,7.44 46.2,7.824 46.2,8.808 C46.2,9.696 46.752,10.008 47.808,10.32 L47.808,10.32 L48.552,10.56 C50.448,11.112 51.48,12.144 51.48,14.064 C51.48,16.704 49.632,18.336 46.92,18.336 C44.928,18.336 43.464,17.736 42.528,16.464 L42.528,16.464 L44.328,14.688 C45.072,15.6 45.912,15.984 46.92,15.984 C47.976,15.984 48.624,15.432 48.624,14.424 C48.624,13.584 48.192,13.128 47.016,12.768 L47.016,12.768 L46.272,12.552 C44.52,12.048 43.344,11.112 43.344,9.048 C43.344,7.056 44.712,5.76 46.992,5.4 L46.992,5.4 L46.992,5.328 C46.992,3.288 46.056,2.352 44.16,2.352 C42.264,2.352 41.328,3.288 41.328,5.328 L41.328,5.328 L41.328,18.048 L38.256,18.048 L38.256,7.944 L36.408,7.944 L36.408,5.52 L38.256,5.52 L38.256,5.4 C38.256,2.04 40.584,1.42108547e-14 44.088,1.42108547e-14 Z M70.392,0.288 L70.392,18.048 L67.32,18.048 L67.32,15.96 L67.2,15.96 C66.744,17.376 65.4,18.336 63.744,18.336 C60.6,18.336 58.848,15.96 58.848,11.76 C58.848,7.584 60.6,5.232 63.744,5.232 C65.4,5.232 66.768,6.144 67.2,7.584 L67.2,7.584 L67.32,7.584 L67.32,0.288 L70.392,0.288 Z M78.912,5.232 C82.824,5.232 84.624,8.112 84.624,11.544 L84.624,11.544 L84.624,12.552 L76.296,12.552 L76.296,12.864 C76.296,14.664 77.328,15.888 79.344,15.888 C80.856,15.888 81.768,15.168 82.536,14.184 L82.536,14.184 L84.192,16.032 C83.16,17.448 81.336,18.336 79.008,18.336 C75.312,18.336 73.104,15.768 73.104,11.76 C73.104,7.8 75.24,5.232 78.912,5.232 Z M134.976,5.232 C138.888,5.232 140.688,8.112 140.688,11.544 L140.688,11.544 L140.688,12.552 L132.36,12.552 L132.36,12.864 C132.36,14.664 133.392,15.888 135.408,15.888 C136.92,15.888 137.832,15.168 138.6,14.184 L138.6,14.184 L140.256,16.032 C139.224,17.448 137.4,18.336 135.072,18.336 C131.376,18.336 129.168,15.768 129.168,11.76 C129.168,7.8 131.304,5.232 134.976,5.232 Z M94.032,5.232 C96.6,5.232 98.04,7.008 98.04,10.128 L98.04,10.128 L98.04,18.048 L94.968,18.048 L94.968,10.44 C94.968,8.664 94.368,7.752 92.904,7.752 C91.632,7.752 90.408,8.424 90.408,9.768 L90.408,9.768 L90.408,18.048 L87.336,18.048 L87.336,5.52 L90.408,5.52 L90.408,7.608 L90.528,7.608 C91.032,6.264 92.088,5.232 94.032,5.232 Z M20.688,5.52 L20.688,18.048 L17.616,18.048 L17.616,5.52 L20.688,5.52 Z M152.496,5.52 L152.496,7.896 L145.944,15.6 L152.664,15.6 L152.664,18.048 L142.392,18.048 L142.392,15.6 L148.896,7.944 L142.608,7.944 L142.608,5.52 L152.496,5.52 Z M110.472,1.296 L110.472,9.552 L110.592,9.552 L112.968,6.408 L117.12,1.296 L120.768,1.296 L114.936,8.28 L121.248,18.048 L117.48,18.048 L112.704,10.464 L110.472,13.104 L110.472,18.048 L107.304,18.048 L107.304,1.296 L110.472,1.296 Z M126.456,5.52 L126.456,18.048 L123.384,18.048 L123.384,5.52 L126.456,5.52 Z M64.728,7.752 C63.144,7.752 62.064,8.928 62.064,10.704 L62.064,10.704 L62.064,12.864 C62.064,14.64 63.144,15.792 64.728,15.792 C66.192,15.792 67.32,15.048 67.32,13.752 L67.32,13.752 L67.32,9.768 C67.32,8.544 66.192,7.752 64.728,7.752 Z M135.024,7.536 C133.416,7.536 132.36,8.736 132.36,10.464 L132.36,10.464 L132.36,10.656 L137.496,10.656 L137.496,10.44 C137.496,8.712 136.608,7.536 135.024,7.536 Z M29.256,7.536 C27.648,7.536 26.592,8.736 26.592,10.464 L26.592,10.464 L26.592,10.656 L31.728,10.656 L31.728,10.44 C31.728,8.712 30.84,7.536 29.256,7.536 Z M78.96,7.536 C77.352,7.536 76.296,8.736 76.296,10.464 L76.296,10.464 L76.296,10.656 L81.432,10.656 L81.432,10.44 C81.432,8.712 80.544,7.536 78.96,7.536 Z M19.152,0.144 C20.4,0.144 20.952,0.792 20.952,1.68 L20.952,1.68 L20.952,2.16 C20.952,3.048 20.4,3.696 19.152,3.696 C17.88,3.696 17.352,3.048 17.352,2.16 L17.352,2.16 L17.352,1.68 C17.352,0.792 17.88,0.144 19.152,0.144 Z M124.92,0.144 C126.168,0.144 126.72,0.792 126.72,1.68 L126.72,1.68 L126.72,2.16 C126.72,3.048 126.168,3.696 124.92,3.696 C123.648,3.696 123.12,3.048 123.12,2.16 L123.12,2.16 L123.12,1.68 C123.12,0.792 123.648,0.144 124.92,0.144 Z" id="Combined-Shape" stroke="#E3FFEF" stroke-width="5" fill="#E3FFEF" stroke-linejoin="round"></path>
                <path d="M6.912,18.336 C9.432,18.336 11.016,17.088 11.304,15.456 L11.4,15.456 L11.4,18.048 L14.136,18.048 L14.136,8.928 L7.8,8.928 L7.8,11.592 L11.088,11.592 L11.088,12.672 C11.088,14.568 9.48,15.528 7.512,15.528 C4.992,15.528 3.36,13.944 3.36,11.016 L3.36,8.328 C3.36,5.376 4.992,3.816 7.464,3.816 C9.456,3.816 10.632,4.896 11.232,6.336 L13.8,4.824 C12.6,2.376 10.44,1.008 7.464,1.008 C3,1.008 -4.26325641e-13,4.104 -4.26325641e-13,9.72 C-4.26325641e-13,15.336 2.976,18.336 6.912,18.336 Z M19.152,3.696 C20.4,3.696 20.952,3.048 20.952,2.16 L20.952,1.68 C20.952,0.792 20.4,0.144 19.152,0.144 C17.88,0.144 17.352,0.792 17.352,1.68 L17.352,2.16 C17.352,3.048 17.88,3.696 19.152,3.696 Z M20.688,18.048 L20.688,5.52 L17.616,5.52 L17.616,18.048 L20.688,18.048 Z M29.304,18.336 C31.632,18.336 33.456,17.448 34.488,16.032 L32.832,14.184 C32.064,15.168 31.152,15.888 29.64,15.888 C27.624,15.888 26.592,14.664 26.592,12.864 L26.592,12.552 L34.92,12.552 L34.92,11.544 C34.92,8.112 33.12,5.232 29.208,5.232 C25.536,5.232 23.4,7.8 23.4,11.76 C23.4,15.768 25.608,18.336 29.304,18.336 Z M31.728,10.656 L26.592,10.656 L26.592,10.464 C26.592,8.736 27.648,7.536 29.256,7.536 C30.84,7.536 31.728,8.712 31.728,10.44 L31.728,10.656 Z M46.92,18.336 C49.632,18.336 51.48,16.704 51.48,14.064 C51.48,12.144 50.448,11.112 48.552,10.56 L47.808,10.32 C46.752,10.008 46.2,9.696 46.2,8.808 C46.2,7.824 46.92,7.44 48.576,7.44 L49.848,7.44 L49.848,5.376 C49.848,2.016 47.592,7.10542736e-15 44.088,7.10542736e-15 C40.584,7.10542736e-15 38.256,2.04 38.256,5.4 L38.256,5.52 L36.408,5.52 L36.408,7.944 L38.256,7.944 L38.256,18.048 L41.328,18.048 L41.328,5.328 C41.328,3.288 42.264,2.352 44.16,2.352 C46.056,2.352 46.992,3.288 46.992,5.328 L46.992,5.4 C44.712,5.76 43.344,7.056 43.344,9.048 C43.344,11.112 44.52,12.048 46.272,12.552 L47.016,12.768 C48.192,13.128 48.624,13.584 48.624,14.424 C48.624,15.432 47.976,15.984 46.92,15.984 C45.912,15.984 45.072,15.6 44.328,14.688 L42.528,16.464 C43.464,17.736 44.928,18.336 46.92,18.336 Z M63.744,18.336 C65.4,18.336 66.744,17.376 67.2,15.96 L67.32,15.96 L67.32,18.048 L70.392,18.048 L70.392,0.288 L67.32,0.288 L67.32,7.584 L67.2,7.584 C66.768,6.144 65.4,5.232 63.744,5.232 C60.6,5.232 58.848,7.584 58.848,11.76 C58.848,15.96 60.6,18.336 63.744,18.336 Z M64.728,15.792 C63.144,15.792 62.064,14.64 62.064,12.864 L62.064,10.704 C62.064,8.928 63.144,7.752 64.728,7.752 C66.192,7.752 67.32,8.544 67.32,9.768 L67.32,13.752 C67.32,15.048 66.192,15.792 64.728,15.792 Z M79.008,18.336 C81.336,18.336 83.16,17.448 84.192,16.032 L82.536,14.184 C81.768,15.168 80.856,15.888 79.344,15.888 C77.328,15.888 76.296,14.664 76.296,12.864 L76.296,12.552 L84.624,12.552 L84.624,11.544 C84.624,8.112 82.824,5.232 78.912,5.232 C75.24,5.232 73.104,7.8 73.104,11.76 C73.104,15.768 75.312,18.336 79.008,18.336 Z M81.432,10.656 L76.296,10.656 L76.296,10.464 C76.296,8.736 77.352,7.536 78.96,7.536 C80.544,7.536 81.432,8.712 81.432,10.44 L81.432,10.656 Z M90.408,18.048 L90.408,9.768 C90.408,8.424 91.632,7.752 92.904,7.752 C94.368,7.752 94.968,8.664 94.968,10.44 L94.968,18.048 L98.04,18.048 L98.04,10.128 C98.04,7.008 96.6,5.232 94.032,5.232 C92.088,5.232 91.032,6.264 90.528,7.608 L90.408,7.608 L90.408,5.52 L87.336,5.52 L87.336,18.048 L90.408,18.048 Z" id="Gießden" fill="#000000"></path>
                <path d="M110.472,18.048 L110.472,13.104 L112.704,10.464 L117.48,18.048 L121.248,18.048 L114.936,8.28 L120.768,1.296 L117.12,1.296 L112.968,6.408 L110.592,9.552 L110.472,9.552 L110.472,1.296 L107.304,1.296 L107.304,18.048 L110.472,18.048 Z M124.92,3.696 C126.168,3.696 126.72,3.048 126.72,2.16 L126.72,1.68 C126.72,0.792 126.168,0.144 124.92,0.144 C123.648,0.144 123.12,0.792 123.12,1.68 L123.12,2.16 C123.12,3.048 123.648,3.696 124.92,3.696 Z M126.456,18.048 L126.456,5.52 L123.384,5.52 L123.384,18.048 L126.456,18.048 Z M135.072,18.336 C137.4,18.336 139.224,17.448 140.256,16.032 L138.6,14.184 C137.832,15.168 136.92,15.888 135.408,15.888 C133.392,15.888 132.36,14.664 132.36,12.864 L132.36,12.552 L140.688,12.552 L140.688,11.544 C140.688,8.112 138.888,5.232 134.976,5.232 C131.304,5.232 129.168,7.8 129.168,11.76 C129.168,15.768 131.376,18.336 135.072,18.336 Z M137.496,10.656 L132.36,10.656 L132.36,10.464 C132.36,8.736 133.416,7.536 135.024,7.536 C136.608,7.536 137.496,8.712 137.496,10.44 L137.496,10.656 Z M152.664,18.048 L152.664,15.6 L145.944,15.6 L152.496,7.896 L152.496,5.52 L142.608,5.52 L142.608,7.944 L148.896,7.944 L142.392,15.6 L142.392,18.048 L152.664,18.048 Z" id="Kiez" fill="#37DE8A"></path>
            </g>
        </g>
    </g>
</svg>